<svg version="1.1" id="Layer_1" xmlns="http://www.w3.org/2000/svg" xmlns:xlink="http://www.w3.org/1999/xlink" x="0px" y="0px"
	 width="100%" viewBox="0 0 708 238" enable-background="new 0 0 708 238" xml:space="preserve">
<path fill="#000000" opacity="1.000000" stroke="none" 
	d="
M494.000000,239.000000 
	C459.979095,239.000000 425.958221,239.000000 391.178528,238.683044 
	C391.946320,236.475327 394.529266,234.718994 394.790375,232.667191 
	C395.430450,227.637466 394.999512,222.471451 394.999512,217.006409 
	C393.604614,217.006409 392.496552,217.008774 391.388489,217.005753 
	C390.209320,217.002548 388.985382,217.199219 387.858612,216.953171 
	C382.580841,215.800659 379.983551,218.047089 380.137054,222.133804 
	C380.272217,225.732193 381.572510,229.286804 382.379639,232.957901 
	C382.409790,232.950424 381.159119,233.260391 379.733307,233.613754 
	C381.371948,235.682358 382.685974,237.341187 384.000000,239.000000 
	C256.393036,239.000000 128.786041,239.000000 1.089534,239.000000 
	C1.089534,159.763535 1.089534,80.526939 1.089534,1.000000 
	C105.687386,1.000000 210.375031,1.000000 315.791138,1.315641 
	C316.324310,1.897878 316.187408,2.266065 315.925476,2.416506 
	C302.127686,10.341229 288.267670,18.159332 274.536133,26.196920 
	C268.610443,29.665462 262.948059,33.583923 256.912537,37.562935 
	C250.632431,38.537052 247.070297,42.364113 245.039917,47.624973 
	C241.328690,57.241100 245.277100,66.727974 254.301331,71.762383 
	C266.910370,78.796684 279.324890,86.178780 291.867371,93.333641 
	C300.042114,97.996918 308.151062,102.810364 316.555542,107.026192 
	C325.014008,111.269073 334.596558,108.044479 339.139008,100.650696 
	C344.265381,92.306450 342.537323,80.800385 334.147156,75.707130 
	C322.499939,68.636681 310.722046,61.781502 299.171112,54.536003 
	C310.239410,47.966637 321.284332,41.936199 331.997406,35.364685 
	C346.122986,26.699896 345.213318,9.665699 332.203827,2.512040 
	C331.938843,2.366349 332.059326,1.519658 332.000000,1.000000 
	C346.687561,1.000000 361.375122,1.000000 376.665741,1.345874 
	C376.890747,2.229338 376.626862,2.935668 376.118011,3.279890 
	C363.004333,12.151236 365.363983,28.462126 378.326538,35.753975 
	C389.317261,41.936592 400.133209,48.429943 410.700226,54.952488 
	C399.815277,61.093281 389.209259,66.985748 378.714447,73.070007 
	C371.659210,77.160187 366.388062,83.134125 367.202118,91.557755 
	C368.527039,105.267776 383.074066,113.407822 394.898041,106.136093 
	C407.307159,98.504509 420.284393,91.802452 432.907288,84.510506 
	C439.735535,80.565987 446.342407,76.238205 453.406677,72.035042 
	C463.884033,69.346779 469.272217,56.200211 464.432007,47.561012 
	C461.802765,42.868134 456.721130,39.040398 451.941559,36.154053 
	C435.901337,26.467571 419.457092,17.452654 403.271393,8.002698 
	C399.950195,6.063630 397.078766,3.354285 394.000000,1.000000 
	C498.929169,1.000000 603.858337,1.000000 708.893799,1.000000 
	C708.893799,80.333267 708.893799,159.666611 708.893799,239.000000 
	C677.227966,239.000000 645.582642,239.000000 613.178589,238.683197 
	C620.810181,232.668243 615.390808,224.319244 617.218506,216.975357 
	C614.008484,216.975357 611.370605,217.530273 609.099182,216.854202 
	C604.986084,215.629944 603.025940,217.659164 601.734192,220.835342 
	C599.904663,225.333633 600.667114,229.303467 605.887329,232.395416 
	C603.808777,232.804825 602.615479,233.039871 601.106934,233.337006 
	C602.451355,235.292664 603.725708,237.146332 605.000000,239.000000 
	C570.979126,239.000000 536.958191,239.000000 502.178528,238.683044 
	C502.946320,236.468262 505.528992,234.704544 505.790405,232.646011 
	C506.430695,227.604294 505.999512,222.426514 505.999512,217.259995 
	C503.686310,217.259995 501.456421,217.831802 499.742065,217.135056 
	C496.647858,215.877548 493.628326,215.967453 492.193359,218.635651 
	C490.933075,220.978958 490.801514,224.273636 491.149506,227.024399 
	C491.409729,229.081528 493.226532,230.941742 494.301575,232.805267 
	C493.503082,232.934357 492.270966,233.133545 490.924957,233.351151 
	C492.047058,235.412460 493.023529,237.206238 494.000000,239.000000 
M214.000000,159.510986 
	C214.000000,169.253296 214.000000,178.995590 214.000000,189.000000 
	C219.641083,189.000000 224.767639,188.878586 229.886353,189.027512 
	C238.274521,189.271561 248.127792,184.265808 249.857224,171.734161 
	C251.278595,161.434998 247.585251,150.659302 236.045242,148.171631 
	C228.986130,146.649918 221.509369,147.065659 214.000000,146.597565 
	C214.000000,151.240448 214.000000,154.878769 214.000000,159.510986 
M117.413780,182.934418 
	C121.072853,188.915787 129.541473,189.963989 137.302460,185.631271 
	C136.536621,188.458359 135.848618,191.924805 133.767548,193.334106 
	C131.384476,194.947891 128.218552,194.237427 125.171371,192.158188 
	C123.185989,190.803497 119.486473,191.960922 116.554855,191.992966 
	C117.769836,194.226746 118.427048,197.323181 120.302345,198.535690 
	C126.406693,202.482529 138.591415,202.475815 143.601059,195.873047 
	C144.638657,194.505493 145.864471,192.795746 145.891800,191.224380 
	C146.087814,179.951019 145.996613,168.672653 145.996613,157.200043 
	C142.861282,157.200043 140.094406,157.200043 137.273102,157.200043 
	C137.069473,158.377090 136.872620,159.514938 136.628555,160.925674 
	C130.749664,154.106567 119.257515,156.098984 116.114304,165.696060 
	C114.275223,171.311295 114.430664,176.839218 117.413780,182.934418 
M18.885164,156.011185 
	C22.693155,154.069809 26.635746,154.277008 29.007269,157.716919 
	C32.443520,162.701233 36.686970,160.700638 40.926655,160.673462 
	C40.438435,149.356689 25.291687,143.436996 15.496258,147.869781 
	C5.874814,152.223816 2.096041,160.243484 4.019930,173.376266 
	C6.272418,188.752075 22.178936,192.720535 33.704197,186.701218 
	C42.281662,182.221436 41.249588,174.079361 40.778538,166.000000 
	C37.646824,166.000000 34.840618,166.000000 32.034412,166.000000 
	C29.087955,166.000000 26.141499,166.000000 23.261986,166.000000 
	C23.261986,168.607773 23.261986,170.682953 23.261986,173.074921 
	C26.287403,173.074921 29.054688,173.074921 31.931049,173.074921 
	C31.918819,178.277969 28.743431,180.245163 24.644583,180.928436 
	C20.288250,181.654648 17.066805,179.679901 14.951071,175.818314 
	C11.454416,169.436264 12.597337,160.803452 18.885164,156.011185 
M521.958313,177.434662 
	C517.422363,172.155029 518.216248,166.102417 520.358521,160.439041 
	C522.602234,154.507690 530.934631,152.700516 534.689697,157.521301 
	C538.349304,162.219559 542.475220,160.801910 546.830505,160.847290 
	C545.239868,148.347473 530.567078,143.113998 520.046387,148.416489 
	C510.953827,152.999191 508.699982,161.106720 509.055084,170.276077 
	C509.582855,183.901855 522.936768,193.408417 535.583618,188.683060 
	C544.255493,185.442886 549.115723,178.481552 546.348267,166.325089 
	C540.547241,166.325089 534.799194,166.325089 529.327759,166.325089 
	C529.327759,168.734344 529.327759,170.812866 529.327759,173.225128 
	C532.395264,173.225128 535.136047,173.225128 537.920044,173.225128 
	C536.376831,181.287476 529.010559,183.413788 521.958313,177.434662 
M654.000366,188.210495 
	C654.538940,187.843918 655.365967,187.038559 655.573792,187.175171 
	C660.387634,190.339050 666.387512,189.491669 670.753967,185.878647 
	C676.385437,181.218765 676.617371,165.974152 670.793640,160.343155 
	C665.965881,155.675232 656.764465,155.509781 653.997986,160.813705 
	C653.835510,161.125046 653.539612,161.366730 653.126282,161.851395 
	C653.016724,160.056717 652.929565,158.628967 652.846191,157.263092 
	C649.754456,157.263092 647.004639,157.263092 644.256958,157.263092 
	C644.256958,171.598587 644.256958,185.669464 644.256958,199.742706 
	C647.593567,199.742706 650.666260,199.742706 654.000000,199.742706 
	C654.000000,196.018372 654.000000,192.548294 654.000366,188.210495 
M412.998871,158.913589 
	C410.613800,154.867676 407.165131,157.878845 404.292969,157.157455 
	C404.292969,171.669769 404.292969,185.748154 404.292969,199.701782 
	C407.334259,199.701782 410.075226,199.701782 413.224396,199.701782 
	C413.224396,194.744827 413.224396,190.076950 413.224396,184.983002 
	C420.848999,193.223816 431.701080,188.102661 433.655518,181.620178 
	C434.763855,177.944000 435.190460,173.835098 434.887878,170.002930 
	C433.949646,158.122116 423.716187,153.462234 414.156372,160.257050 
	C413.984375,160.379288 413.398926,159.919800 412.998871,158.913589 
M174.695236,188.167923 
	C186.377502,191.642212 195.295563,187.835968 195.629379,178.597794 
	C192.517029,179.079788 189.058243,178.745026 186.626953,180.167023 
	C180.978226,183.470825 177.898346,182.680115 175.363434,175.863205 
	C182.221130,175.863205 188.964142,175.863205 196.000000,175.863205 
	C196.000000,173.749084 196.008316,171.954361 195.998489,170.159744 
	C195.962555,163.594131 192.418076,159.136398 185.744125,157.253143 
	C179.165436,155.396774 172.048141,158.027512 168.945740,163.204300 
	C164.088943,171.308548 164.591599,181.947495 174.695236,188.167923 
M254.889725,178.393631 
	C256.622925,185.433212 263.151703,190.475082 269.890259,189.977844 
	C278.191711,189.365265 283.004700,185.680984 283.910980,178.499435 
	C280.566254,179.089417 276.972626,178.843063 274.422821,180.355972 
	C269.083496,183.523987 264.865631,182.212219 263.515625,175.760864 
	C270.343445,175.760864 277.101868,175.760864 284.000000,175.760864 
	C284.000000,174.270493 283.934204,173.115646 284.010040,171.970154 
	C284.897858,158.558945 270.613129,153.811142 261.679321,158.761017 
	C253.797684,163.127899 253.470688,170.182373 254.889725,178.393631 
M327.170288,158.297241 
	C319.801178,162.684052 317.128967,170.517990 319.996033,179.329330 
	C322.105225,185.811447 328.527832,190.411972 334.863647,189.979004 
	C343.063904,189.418625 347.980438,185.671204 348.920959,178.516464 
	C345.576508,179.095810 341.985107,178.835480 339.439209,180.342010 
	C334.082367,183.511932 329.885193,182.220718 328.495239,175.767303 
	C335.326355,175.767303 342.087006,175.767303 348.781708,175.767303 
	C351.257355,159.275070 338.073181,154.378662 327.170288,158.297241 
M466.704620,163.172348 
	C459.975403,154.716797 449.915833,155.749420 443.575348,160.102829 
	C438.336121,163.700104 437.541229,177.801086 440.870605,182.822617 
	C443.795776,187.234436 447.915283,188.463394 452.700745,189.401627 
	C460.071838,190.846771 467.015930,186.493881 468.492249,177.602966 
	C464.471191,179.145477 461.063416,180.242310 457.841553,181.739349 
	C453.328430,183.836349 448.844757,181.377991 448.221893,175.771622 
	C455.164948,175.771622 462.063690,175.771622 469.785187,175.771622 
	C468.751282,171.378632 467.872009,167.642639 466.704620,163.172348 
M81.298523,166.171448 
	C81.201546,170.285492 80.452217,174.513428 81.146255,178.489395 
	C82.503067,186.262192 90.894135,190.487854 98.821388,189.175247 
	C108.040581,187.648758 112.158539,180.855164 111.094505,169.922562 
	C110.340591,162.176254 105.072472,157.967346 99.538757,157.098679 
	C92.186577,155.944534 83.831474,158.448959 81.298523,166.171448 
M599.441345,186.035477 
	C604.698914,180.468933 605.331787,173.677536 603.240112,166.943466 
	C600.883301,159.355972 595.629211,156.739792 586.228149,157.000031 
	C580.139832,157.168594 576.775208,160.735214 573.844421,168.112595 
	C570.604797,176.267426 576.454468,188.711960 585.696594,189.279144 
	C590.660278,189.583786 594.700745,188.447662 599.441345,186.035477 
M54.623688,188.117950 
	C57.998024,188.412674 61.417965,189.201248 64.736778,188.894760 
	C70.809952,188.333923 75.795013,183.103622 76.983910,176.886017 
	C78.170242,170.681824 74.851402,161.419006 70.153923,159.079834 
	C62.000118,155.019516 52.544903,156.133743 47.943233,164.276566 
	C43.191853,172.684280 45.896492,183.533630 54.623688,188.117950 
M390.828247,158.296875 
	C383.433472,154.940598 372.607513,158.001495 369.650055,165.385422 
	C366.227448,173.930771 369.164246,184.957916 376.547485,188.108231 
	C383.713898,191.166046 393.671631,189.748993 397.412537,181.948288 
	C400.496246,175.517944 400.744812,163.122543 390.828247,158.296875 
M613.496704,157.000000 
	C612.065125,157.073914 610.633484,157.147842 609.000000,157.232193 
	C609.000000,164.217331 609.021912,170.861130 608.992554,177.504715 
	C608.971802,182.208878 610.124451,186.551926 614.904053,188.239273 
	C619.728638,189.942505 624.711548,190.059906 628.809814,185.138748 
	C628.954651,186.578094 629.068176,187.706299 629.170471,188.722702 
	C632.271606,188.722702 635.021667,188.722702 637.724487,188.722702 
	C637.724487,178.032623 637.724487,167.622147 637.724487,157.279419 
	C634.703003,157.279419 631.964172,157.279419 629.000000,157.279419 
	C629.000000,163.032166 629.073792,168.508896 628.973389,173.982422 
	C628.909058,177.486542 627.845825,180.734955 623.730225,180.914841 
	C619.154297,181.114853 618.181152,177.581787 618.041382,173.949219 
	C617.868591,169.456619 617.815735,164.942078 618.065735,160.456772 
	C618.228149,157.542755 617.201599,156.537460 613.496704,157.000000 
M687.841492,179.363388 
	C684.709167,179.198288 681.576843,179.033203 678.462769,178.869064 
	C678.877197,183.811768 681.305908,186.800751 685.799805,188.360809 
	C690.531738,190.003494 695.391663,190.282593 699.870911,188.447876 
	C703.812561,186.833359 707.116882,183.874130 706.988342,178.864380 
	C706.863159,173.986343 704.016663,171.661072 699.447937,170.854446 
	C696.775391,170.382599 694.099060,169.783051 691.536560,168.911316 
	C690.534912,168.570541 689.840393,167.326828 689.005981,166.494370 
	C689.843262,165.666000 690.566101,164.359573 691.545593,164.124985 
	C692.902954,163.799881 695.306946,163.746780 695.780457,164.504028 
	C698.540710,168.918640 702.445984,166.357300 706.460693,166.947998 
	C705.844788,165.121735 705.630493,163.656326 704.913879,162.503082 
	C701.513123,157.030426 691.814270,155.012558 685.307617,158.240494 
	C681.333191,160.212204 678.768066,163.222092 679.083252,167.758865 
	C679.427734,172.717453 683.203979,174.749771 687.412170,175.951035 
	C689.883179,176.656433 692.507690,176.827255 694.973450,177.546249 
	C695.787842,177.783707 696.722046,178.922699 696.850647,179.764175 
	C696.945068,180.382431 695.729431,181.858826 695.247498,181.796371 
	C692.812622,181.480789 690.426758,180.786407 687.841492,179.363388 
M294.000854,181.545471 
	C294.807312,183.953125 295.613739,186.360779 296.497711,188.999924 
	C298.936035,188.999924 301.472992,189.296646 303.890869,188.888412 
	C305.336914,188.644287 307.383148,187.583588 307.815735,186.399124 
	C311.322723,176.796494 314.511444,167.077652 317.784393,157.389938 
	C308.438721,156.249176 308.510101,156.270081 305.831207,165.413483 
	C304.630493,169.511703 303.078918,173.507141 301.550354,177.944672 
	C299.451691,170.585510 297.528168,163.840378 295.657166,157.279480 
	C292.274384,157.279480 289.192871,157.279480 285.356995,157.279480 
	C288.345551,165.417404 291.156372,173.071304 294.000854,181.545471 
M159.349136,188.995575 
	C159.899399,187.886017 160.899307,186.787048 160.925720,185.665161 
	C161.077972,179.199677 161.000000,172.728790 161.000000,166.259735 
	C161.000015,159.862381 161.000000,153.465042 161.000000,147.328430 
	C157.589813,147.328430 154.854919,147.328430 152.256424,147.328430 
	C152.256424,161.354721 152.256424,175.051315 152.256424,188.999695 
	C154.472702,188.999695 156.435196,188.999695 159.349136,188.995575 
M363.000000,152.603790 
	C363.000000,150.832123 363.000000,149.060471 363.000000,147.224472 
	C359.789001,147.224472 357.061401,147.224472 354.326233,147.224472 
	C354.326233,161.267395 354.326233,175.083420 354.326233,188.679962 
	C357.390167,188.679962 360.122437,188.679962 363.000000,188.679962 
	C363.000000,176.766968 363.000000,165.173416 363.000000,152.603790 
M569.366577,165.002289 
	C570.190979,165.181732 571.015381,165.361191 571.823914,165.537186 
	C571.823914,162.608246 571.823914,159.983902 571.823914,156.349976 
	C568.274536,157.336670 565.148743,158.205597 562.302429,158.996857 
	C560.281677,154.885178 556.373779,157.931702 553.354858,156.948853 
	C553.354858,167.906036 553.354858,178.425003 553.354858,188.826553 
	C556.331299,188.826553 558.951355,188.826553 562.000000,188.826553 
	C562.000000,183.385941 562.083740,178.105682 561.974792,172.829391 
	C561.879578,168.218185 563.599426,165.307709 569.366577,165.002289 
M474.000183,159.705688 
	C474.000183,169.448227 474.000183,179.190750 474.000183,188.657623 
	C477.417877,188.657623 480.156952,188.657623 483.000031,188.657623 
	C483.000031,182.667648 483.214386,177.008682 482.928894,171.375031 
	C482.718842,167.230545 485.308167,165.942017 488.404846,165.073853 
	C489.738464,164.699966 491.264130,165.011230 492.789917,165.011230 
	C492.789917,162.140091 492.789917,159.714447 492.789917,156.333328 
	C489.237183,157.246109 486.112549,158.048904 482.915009,158.870438 
	C481.985107,156.292068 476.777313,155.786438 474.000183,159.705688 
M103.538406,230.998062 
	C105.933411,231.320435 107.388901,230.703522 107.032593,227.854996 
	C106.848160,226.380524 106.783813,224.820816 107.069595,223.379807 
	C107.301010,222.212921 108.136917,221.165924 108.704697,220.065750 
	C109.136253,221.136902 109.855782,222.185776 109.940643,223.283737 
	C110.129066,225.721542 109.999374,228.183945 109.999374,230.728058 
	C111.875458,230.728058 113.264999,230.728058 114.997566,230.728058 
	C114.997566,226.834625 115.485725,223.105515 114.792328,219.610870 
	C114.443855,217.854568 112.060028,215.373398 110.401947,215.211273 
	C104.783363,214.661942 99.077858,215.001648 93.222626,215.001648 
	C93.222626,220.409393 93.222626,225.499130 93.222626,230.748322 
	C94.840096,230.748322 96.228043,230.748322 97.319145,230.748322 
	C99.419769,227.299606 95.921715,222.649048 101.001160,218.898392 
	C101.001160,222.290695 100.799141,224.432190 101.068184,226.512772 
	C101.266144,228.043655 102.080246,229.494843 103.538406,230.998062 
M116.998802,228.433380 
	C116.998802,230.878708 116.998802,233.324051 116.998802,235.682404 
	C119.332352,235.682404 121.082657,235.682404 122.778564,235.682404 
	C122.975189,233.627991 123.141312,231.892288 123.313324,230.095062 
	C128.585892,231.620743 131.908630,230.137833 132.925751,226.063980 
	C134.217300,220.890961 131.976669,215.370728 128.212296,215.069397 
	C124.599800,214.780228 120.945999,215.006943 116.998802,215.006943 
	C116.998802,219.512787 116.998802,223.485992 116.998802,228.433380 
M419.314331,219.155563 
	C418.742615,224.945999 420.898071,230.244537 424.466614,231.820908 
	C428.550262,233.624817 434.455841,232.044968 437.254517,228.171371 
	C439.875183,224.544266 439.812347,220.492249 437.831757,216.704117 
	C435.916016,213.039886 432.433746,210.850983 428.369934,211.383133 
	C424.363586,211.907761 420.468506,213.544296 419.314331,219.155563 
M29.672619,226.811462 
	C32.329243,220.515259 31.391291,214.332901 27.395340,211.800888 
	C22.474676,208.682953 17.118309,209.456696 13.761706,213.770309 
	C10.646966,217.773102 11.340158,225.185287 15.153311,228.650620 
	C19.270693,232.392456 24.297176,231.930344 29.672619,226.811462 
M202.592834,223.928970 
	C202.988266,212.978516 197.862976,210.451660 185.291016,212.577805 
	C185.291016,219.003342 185.291016,225.410141 185.291016,232.000000 
	C188.060257,232.000000 190.540009,232.014908 193.019531,231.996979 
	C198.652267,231.956223 200.594711,230.343231 202.592834,223.928970 
M324.289398,212.001251 
	C316.239655,210.063766 312.485809,214.380035 311.078400,220.029816 
	C309.631378,225.838654 314.003540,231.621597 320.221863,232.656555 
	C325.075439,233.464371 328.977692,230.111603 330.043793,222.981155 
	C327.540375,224.255219 325.835938,225.447525 323.944946,225.992493 
	C322.102325,226.523529 320.068848,226.392380 318.119141,226.551971 
	C318.146790,223.807602 317.999298,221.034164 318.443695,218.359024 
	C318.494110,218.055359 321.931305,218.014069 323.691254,218.373810 
	C325.702606,218.784912 327.594421,219.780762 329.538208,220.522522 
	C329.966095,219.891159 330.393982,219.259781 330.821899,218.628403 
	C328.909851,216.426041 326.997833,214.223679 324.289398,212.001251 
M67.021080,225.465454 
	C65.365799,224.651550 62.394028,223.948654 62.314190,223.001923 
	C62.114002,220.627914 62.969639,218.027679 63.993977,215.789169 
	C64.234230,215.264145 66.907822,215.519897 68.307281,215.936249 
	C70.394524,216.557190 72.344467,217.639648 75.351097,218.966187 
	C72.981476,211.664337 69.085449,209.140366 63.569820,210.015778 
	C58.647442,210.797043 55.706169,215.474274 56.000515,222.052505 
	C56.206059,226.646179 59.810524,230.586624 64.181992,230.996582 
	C69.752686,231.519012 73.212708,228.959213 74.901123,222.075470 
	C72.051247,223.251831 69.879921,224.148102 67.021080,225.465454 
M633.662659,212.004425 
	C633.109436,212.616547 632.088501,213.219101 632.075745,213.842270 
	C631.954102,219.794754 632.003113,225.750732 632.003113,232.037277 
	C633.964111,231.934601 635.472473,231.855621 637.164551,231.767029 
	C637.164551,229.590607 637.164551,227.966736 637.164551,226.000031 
	C638.337036,226.000031 639.308716,225.888885 640.246887,226.018982 
	C644.645569,226.628891 647.184692,223.571365 647.552795,220.361374 
	C647.834778,217.902847 645.893677,214.042694 643.764526,212.761520 
	C641.411560,211.345642 637.717529,212.158295 633.662659,212.004425 
M457.003845,230.284943 
	C458.505951,231.805542 469.866669,232.848221 471.944305,231.419067 
	C471.863037,230.424423 471.766968,229.248291 471.655945,227.889297 
	C468.664368,227.889297 466.042542,227.889297 463.026672,227.889297 
	C463.123444,226.471664 463.203735,225.295135 463.296844,223.930939 
	C465.943085,223.930939 468.233185,223.930939 470.945374,223.930939 
	C470.880737,222.525330 470.826538,221.346603 470.756134,219.814850 
	C467.976562,219.814850 465.555664,219.814850 462.733887,219.814850 
	C463.638336,212.895981 469.409851,217.891754 471.753357,215.440125 
	C471.753357,214.415527 471.753357,213.345978 471.753357,212.240784 
	C466.773895,212.240784 462.039612,212.240784 457.000244,212.240784 
	C457.000244,218.090622 457.000244,223.704880 457.003845,230.284943 
M262.977356,216.927979 
	C259.587128,208.852676 252.754898,213.086487 247.243515,211.925674 
	C247.243515,218.954987 247.243515,225.373917 247.243515,231.757233 
	C248.904434,231.757233 250.318192,231.757233 252.095062,231.757233 
	C252.095062,229.765686 252.095062,228.013199 252.095062,226.297226 
	C261.730652,225.560471 262.800842,224.695648 262.977356,216.927979 
M78.732170,221.587234 
	C75.701492,223.896759 74.124039,227.598923 77.590317,229.451843 
	C80.878189,231.209351 85.533745,230.498810 89.594337,230.592392 
	C90.043427,230.602737 90.801331,228.806198 90.945930,227.781342 
	C91.175804,226.152100 91.030968,224.466690 91.007271,222.805573 
	C90.911659,216.102325 85.736664,213.040466 79.583649,215.787476 
	C76.574486,217.130936 76.174553,218.593765 78.732170,221.587234 
M275.361267,231.999710 
	C276.223328,231.710800 277.818909,231.456711 277.834564,231.127609 
	C278.000183,227.640427 278.867584,223.726913 277.586700,220.780807 
	C276.618225,218.553299 272.888062,216.497253 270.256378,216.321548 
	C267.792175,216.157028 263.749115,216.984695 264.083984,222.078903 
	C266.618713,221.767639 269.081940,221.465149 271.545135,221.162659 
	C270.250244,222.201035 268.822601,222.902054 267.376984,222.941330 
	C263.673187,223.041977 262.849396,225.919693 263.259338,228.277695 
	C263.514282,229.743805 266.116028,231.286026 267.956024,231.860825 
	C269.929443,232.477310 272.244568,231.999985 275.361267,231.999710 
M152.245560,222.705856 
	C152.998795,223.319489 153.752014,223.933136 154.622910,224.642670 
	C153.402802,224.897720 152.226349,225.143646 150.936813,225.413208 
	C152.048981,230.032715 155.160095,231.670242 159.072144,230.851959 
	C161.518188,230.340317 164.145691,228.794388 165.729172,226.905579 
	C166.462662,226.030640 164.899017,223.229965 164.210861,220.689850 
	C166.041641,218.791473 165.842224,217.514145 162.500046,215.849167 
	C156.685623,212.952621 152.025543,215.664230 152.245560,222.705856 
M34.606480,230.980652 
	C36.017509,230.894943 37.428539,230.809235 39.252125,230.698456 
	C39.252125,226.888123 39.252125,223.497650 39.252125,219.525711 
	C45.821423,221.877060 41.338005,227.423965 43.577667,230.748901 
	C44.849792,230.748901 46.235340,230.748901 47.995747,230.748901 
	C47.995747,226.727051 48.375744,222.881699 47.814411,219.179047 
	C47.579865,217.631897 45.503963,215.452087 43.987839,215.194794 
	C40.487598,214.600800 36.817760,215.006195 32.675987,215.006195 
	C33.040585,220.752136 33.361179,225.804581 34.606480,230.980652 
M378.998108,223.852509 
	C378.026367,221.907166 377.524536,219.364014 375.978729,218.149078 
	C373.299957,216.043625 369.410248,215.096649 366.948303,217.879684 
	C364.951019,220.137436 363.441101,223.756287 363.542847,226.708496 
	C363.673767,230.508621 367.447998,232.864914 370.917480,232.719528 
	C373.995056,232.590576 378.253510,232.049866 378.469025,227.008331 
	C375.408356,227.149551 372.394379,227.288620 369.380402,227.427689 
	C369.418243,227.154663 369.456116,226.881638 369.493988,226.608612 
	C372.659637,225.977310 375.825317,225.346008 378.998108,223.852509 
M589.999695,229.405212 
	C590.000610,227.573166 589.761047,225.695908 590.093750,223.926208 
	C590.289673,222.883530 591.393066,222.011383 592.088318,221.062515 
	C592.725220,222.070160 593.800964,223.032013 593.911804,224.094543 
	C594.180176,226.667877 593.998962,229.288116 593.998962,232.070541 
	C596.364624,231.954895 598.104431,231.869858 599.998413,231.777283 
	C599.998413,228.571472 600.775513,225.438034 599.790283,223.023758 
	C598.700073,220.352158 596.376099,217.145416 593.895203,216.357651 
	C591.143188,215.483810 587.606812,217.080429 584.345825,217.612122 
	C584.345825,222.176666 584.345825,227.062347 584.345825,233.004776 
	C586.675537,231.899323 588.335815,231.111526 589.999695,229.405212 
M144.001526,218.612534 
	C144.001526,221.027710 144.001526,223.442871 144.001526,226.532944 
	C137.125839,224.178299 141.700043,218.577423 139.379059,215.248260 
	C138.166229,215.248260 136.776627,215.248260 135.003830,215.248260 
	C135.003830,218.939072 134.956146,222.402344 135.018005,225.863647 
	C135.073441,228.965363 136.815353,230.757767 139.820847,230.945160 
	C143.106644,231.150040 146.415070,230.991745 149.684265,230.991745 
	C149.684265,225.340866 149.684265,220.268036 149.684265,214.710785 
	C147.520340,215.905273 143.971909,212.924896 144.001526,218.612534 
M403.642670,227.939514 
	C404.019348,227.294342 404.353485,226.125931 404.779755,226.091309 
	C407.058929,225.906113 409.361115,226.003998 411.615387,226.003998 
	C412.192505,220.200882 409.898499,216.670959 405.460815,216.127426 
	C401.517670,215.644470 397.679779,218.511002 397.009125,222.440033 
	C396.068085,227.952850 398.107330,230.979172 403.610138,232.236130 
	C407.720734,233.175049 410.568573,231.423462 411.805695,226.733475 
	C409.218903,227.181534 406.869568,227.588486 403.642670,227.939514 
M687.654358,231.998260 
	C693.417358,233.336166 696.457947,231.899506 697.708862,227.023468 
	C694.559021,227.229401 691.503906,227.429123 688.448792,227.628860 
	C688.435242,227.086365 688.421692,226.543869 688.408142,226.001373 
	C691.485107,226.001373 694.562073,226.001373 697.602844,226.001373 
	C698.067627,221.199371 696.894714,218.194656 694.075867,217.044754 
	C690.691040,215.663971 687.434326,215.856155 684.850952,218.702164 
	C681.460144,222.437714 682.355103,227.957397 687.654358,231.998260 
M547.724854,222.197342 
	C547.426025,221.636459 547.137573,221.069748 546.826599,220.515686 
	C544.911926,217.104263 542.180786,216.041916 538.281067,216.898666 
	C533.708008,217.903366 532.061890,221.371780 532.224670,225.036011 
	C532.405945,229.116180 535.331665,232.108200 539.611145,232.862473 
	C543.142395,233.484894 546.131226,231.051132 547.305969,227.055511 
	C544.347900,227.055511 541.424988,227.055511 538.502075,227.055511 
	C540.923340,225.999344 543.302856,226.289963 545.545776,225.862915 
	C546.504395,225.680420 547.178101,224.001511 547.724854,222.197342 
M552.774658,217.031204 
	C547.850891,219.599075 548.220154,224.359650 549.420654,228.239273 
	C550.041016,230.243958 553.809082,232.265839 556.291077,232.450607 
	C559.346680,232.678055 562.882874,231.484314 564.095459,227.071381 
	C560.639404,227.071381 557.482971,227.071381 554.326477,227.071381 
	C554.353821,226.675400 554.381165,226.279434 554.408508,225.883453 
	C557.528931,225.883453 560.649353,225.883453 563.709229,225.883453 
	C565.215759,218.305099 559.433044,215.466888 552.774658,217.031204 
M228.000000,227.718628 
	C230.129654,222.521652 232.259293,217.324692 234.326019,212.281265 
	C228.332077,210.046616 227.481613,215.316772 225.303894,219.241165 
	C223.830215,216.508911 222.631531,214.286499 221.444153,212.085037 
	C219.349350,212.085037 217.374207,212.085037 215.610916,212.085037 
	C218.253159,218.488541 220.896210,224.894012 223.707352,231.706818 
	C224.747314,231.414169 228.629898,233.938675 228.000000,227.718628 
M680.378967,231.934525 
	C680.584167,228.185684 681.412659,224.318466 680.732544,220.737793 
	C680.390564,218.937119 677.465942,216.711426 675.425720,216.369629 
	C672.569397,215.891113 669.448547,216.991516 666.310425,217.434891 
	C666.310425,222.199890 666.310425,227.064117 666.310425,232.075195 
	C668.376648,231.966827 670.122864,231.875244 671.624207,231.796494 
	C672.010681,227.859421 672.352966,224.372299 672.695251,220.885193 
	C673.552368,220.892227 674.409485,220.899277 675.266602,220.906311 
	C675.511108,223.600220 676.100098,226.318787 675.909424,228.981522 
	C675.691223,232.028687 677.229919,232.217896 680.378967,231.934525 
M336.603363,216.998734 
	C335.431396,217.811005 333.923431,218.385681 333.149902,219.479675 
	C330.743591,222.882980 329.948334,226.391098 333.320801,229.856796 
	C336.111847,232.725006 341.178131,233.719940 344.078400,231.324478 
	C347.483521,228.512085 347.834412,224.767624 346.250183,220.739212 
	C344.561035,216.443985 341.250824,216.091599 336.603363,216.998734 
M521.210571,217.718842 
	C519.569763,217.441528 517.928955,217.164215 516.222778,216.875854 
	C516.222778,222.236633 516.222778,226.979980 516.222778,231.793945 
	C517.849365,231.793945 519.250977,231.793945 521.000061,231.793945 
	C521.000061,229.809753 520.835876,228.005234 521.045715,226.245331 
	C521.260010,224.447632 521.841309,222.693665 522.261902,220.920547 
	C522.920532,220.904327 523.579102,220.888092 524.237732,220.871857 
	C524.623657,224.464081 525.009644,228.056305 525.413818,231.818329 
	C527.138733,231.818329 528.871704,231.818329 530.999939,231.818329 
	C530.999939,228.707397 531.085999,225.760437 530.981567,222.820221 
	C530.780945,217.170273 527.282532,215.132706 521.210571,217.718842 
M482.032074,216.455536 
	C479.466125,216.778412 476.900208,217.101303 474.162842,217.445755 
	C474.162842,222.054901 474.162842,226.805664 474.162842,231.684204 
	C475.841339,231.684204 477.347870,231.684204 478.519989,231.684204 
	C479.061523,227.847153 479.553223,224.363449 480.044891,220.879761 
	C480.782928,220.894043 481.520996,220.908325 482.259033,220.922607 
	C482.646088,224.580185 483.033112,228.237747 483.436371,232.048386 
	C485.357544,231.954544 487.089020,231.869980 489.445282,231.754883 
	C487.603882,225.950363 492.632721,218.026764 482.032074,216.455536 
M659.004211,218.637924 
	C658.460083,221.778091 660.657898,225.750977 655.423340,228.141373 
	C655.423340,224.290863 655.423340,220.817841 655.423340,217.187653 
	C652.861206,217.187653 651.123108,217.187653 649.000793,217.187653 
	C649.000793,220.485199 648.862732,223.616501 649.037048,226.730316 
	C649.237610,230.312347 650.781860,232.489502 654.927856,232.057983 
	C657.822083,231.756775 660.773071,231.999939 663.803101,231.999939 
	C663.803101,226.871063 663.803101,222.110168 663.803101,216.798462 
	C662.051758,217.141144 660.553223,217.434357 659.004211,218.637924 
M448.335724,211.000092 
	C444.168823,211.101715 439.355286,216.082687 440.012848,219.597610 
	C440.689270,223.213120 441.341125,226.833237 442.017944,230.448669 
	C442.104340,230.910294 442.276337,231.355927 442.393188,231.755951 
	C443.912872,231.755951 445.313446,231.755951 447.000061,231.755951 
	C447.000061,229.054688 446.872803,226.582993 447.059021,224.135147 
	C447.140228,223.067673 447.581329,221.709122 448.348328,221.070892 
	C450.833466,219.003098 450.687805,217.854309 447.597870,216.430573 
	C448.639679,215.165909 449.748657,213.898041 450.695374,212.518814 
	C450.769470,212.410843 449.711090,211.525497 448.335724,211.000092 
M283.503540,213.000534 
	C280.721497,214.003372 278.317200,218.559006 279.337402,220.666626 
	C280.028595,222.094513 280.882782,223.637863 280.927551,225.151352 
	C281.147308,232.578384 281.337006,232.802277 289.053162,231.442337 
	C288.897125,230.653625 289.018921,229.554031 288.541931,229.133316 
	C285.178345,226.166519 283.564087,223.400253 288.644806,220.517090 
	C289.057220,220.283051 289.254395,218.734512 288.911163,218.268555 
	C287.543518,216.412018 285.922211,214.742371 283.503540,213.000534 
M298.000000,225.425049 
	C298.000000,227.525436 298.000000,229.625839 298.000000,231.793198 
	C300.191650,231.793198 301.918854,231.793198 303.690308,231.793198 
	C303.690308,225.080322 303.690308,218.578079 303.690308,211.925568 
	C301.638306,212.037506 299.905975,212.132004 298.000000,212.235977 
	C298.000000,216.553665 298.000000,220.498642 298.000000,225.425049 
M356.000000,222.487946 
	C356.000000,225.581268 356.000000,228.674591 356.000000,231.779114 
	C358.214874,231.779114 359.942535,231.779114 361.673248,231.779114 
	C361.673248,225.056915 361.673248,218.560135 361.673248,211.914139 
	C359.601044,212.033310 357.870361,212.132843 356.000000,212.240402 
	C356.000000,215.595947 356.000000,218.553970 356.000000,222.487946 
M565.000000,228.333954 
	C565.121094,229.552475 565.242249,230.770996 565.343811,231.793015 
	C567.439453,231.793015 569.046875,231.793015 570.339600,231.793015 
	C572.940674,228.417252 567.052979,221.112885 575.876404,221.245483 
	C575.919739,215.960526 575.919739,215.960526 565.000000,217.533386 
	C565.000000,220.782730 565.000000,224.081207 565.000000,228.333954 
M352.441772,231.995148 
	C352.960327,231.361649 353.916565,230.736725 353.929199,230.093323 
	C354.045074,224.181946 353.997437,218.267349 353.997437,212.359589 
	C352.103668,212.359589 350.609009,212.359589 349.000153,212.359589 
	C349.000153,218.162354 348.873779,223.613312 349.112976,229.048172 
	C349.157715,230.064926 350.666718,231.017258 352.441772,231.995148 
M514.000000,221.614517 
	C514.000000,220.176178 514.000000,218.737823 514.000000,217.191101 
	C511.829987,217.191101 510.105225,217.191101 508.303070,217.191101 
	C508.303070,222.226120 508.303070,227.063812 508.303070,232.059708 
	C510.345093,231.958969 512.074585,231.873657 514.000000,231.778656 
	C514.000000,228.471909 514.000000,225.525452 514.000000,221.614517 
M295.996796,230.244598 
	C295.996796,225.855942 295.996796,221.467285 295.996796,216.915939 
	C293.644440,217.039246 291.914062,217.129944 290.238525,217.217773 
	C290.238525,222.313293 290.238525,227.025497 290.238525,232.315887 
	C292.357330,231.899521 294.155182,231.546234 295.996796,230.244598 
M580.440796,231.995178 
	C580.959656,231.364243 581.907349,230.746902 581.927856,230.100143 
	C582.062683,225.852615 581.997375,221.598724 581.997375,217.357117 
	C580.102234,217.357117 578.609131,217.357117 577.000122,217.357117 
	C577.000122,221.496063 576.824158,225.293716 577.114685,229.055344 
	C577.194702,230.091904 578.666687,231.020935 580.440796,231.995178 
M626.328430,222.000229 
	C624.051575,222.000229 621.774658,222.000229 619.277466,222.000229 
	C619.277466,223.437790 619.277466,224.601669 619.277466,225.777405 
	C622.612061,225.777405 625.669983,225.777405 630.053711,225.777405 
	C628.747986,224.018326 628.000000,223.010712 626.328430,222.000229 
M509.998291,210.512070 
	C509.712494,212.012207 509.426697,213.512344 509.140900,215.012482 
	C510.585632,215.011154 512.904724,215.567841 513.323425,214.911728 
	C515.114075,212.105835 512.901184,210.927109 509.998291,210.512070 
M235.800354,227.028152 
	C233.092926,230.392181 233.118805,230.466309 237.759491,232.639862 
	C241.137558,228.881317 241.025711,228.340118 235.800354,227.028152 
M295.973175,212.807220 
	C295.006622,211.776093 294.040070,210.744980 292.870422,209.497208 
	C291.622589,210.962692 290.702271,212.043564 289.718292,213.199173 
	C291.960510,215.259521 293.816895,218.564194 295.973175,212.807220 
M204.181793,227.320847 
	C203.030380,229.681747 203.133728,231.776657 206.069336,232.358337 
	C206.884338,232.519821 208.705414,231.242325 208.869843,230.393539 
	C209.456161,227.366821 207.425140,226.768890 204.181793,227.320847 
M171.009125,223.606201 
	C171.942657,224.705734 172.876190,225.805283 173.809723,226.904816 
	C174.641190,226.012878 175.797821,225.239792 176.183395,224.184875 
	C176.418472,223.541702 175.428711,221.701141 175.054001,221.719543 
	C173.706833,221.785736 172.387268,222.413818 171.009125,223.606201 
z"/>
<path fill="#0F9D58" opacity="1.000000" stroke="none" 
	d="
M393.532410,1.000000 
	C397.078766,3.354285 399.950195,6.063630 403.271393,8.002698 
	C419.457092,17.452654 435.901337,26.467571 451.941559,36.154053 
	C456.721130,39.040398 461.802765,42.868134 464.432007,47.561012 
	C469.272217,56.200211 463.884033,69.346779 452.945831,72.015076 
	C446.118958,73.100410 440.838898,71.370949 435.652405,68.342705 
	C427.563019,63.619553 419.246674,59.285007 411.026489,54.785789 
	C400.133209,48.429943 389.317261,41.936592 378.326538,35.753975 
	C365.363983,28.462126 363.004333,12.151236 376.118011,3.279890 
	C376.626862,2.935668 376.890747,2.229338 377.134399,1.345874 
	C382.354919,1.000000 387.709869,1.000000 393.532410,1.000000 
z"/>
<path fill="#E94336" opacity="1.000000" stroke="none" 
	d="
M331.533142,1.000000 
	C332.059326,1.519658 331.938843,2.366349 332.203827,2.512040 
	C345.213318,9.665699 346.122986,26.699896 331.997406,35.364685 
	C321.284332,41.936199 310.239410,47.966637 298.817200,54.564957 
	C289.646698,50.098297 281.208771,44.858627 272.269257,40.696087 
	C267.698456,38.567764 262.229218,38.368908 257.166046,37.297989 
	C262.948059,33.583923 268.610443,29.665462 274.536133,26.196920 
	C288.267670,18.159332 302.127686,10.341229 315.925476,2.416506 
	C316.187408,2.266065 316.324310,1.897878 316.259766,1.315641 
	C321.022095,1.000000 326.044189,1.000000 331.533142,1.000000 
z"/>
<path fill="#FFFFFF" opacity="1.000000" stroke="none" 
	d="
M605.444153,239.000000 
	C603.725708,237.146332 602.451355,235.292664 601.106934,233.337006 
	C602.615479,233.039871 603.808777,232.804825 605.887329,232.395416 
	C600.667114,229.303467 599.904663,225.333633 601.734192,220.835342 
	C603.025940,217.659164 604.986084,215.629944 609.099182,216.854202 
	C611.370605,217.530273 614.008484,216.975357 617.218506,216.975357 
	C615.390808,224.319244 620.810181,232.668243 612.709961,238.683197 
	C610.629456,239.000000 608.258850,239.000000 605.444153,239.000000 
z"/>
<path fill="#FFFFFF" opacity="1.000000" stroke="none" 
	d="
M494.444153,239.000000 
	C493.023529,237.206238 492.047058,235.412460 490.924957,233.351151 
	C492.270966,233.133545 493.503082,232.934357 494.301575,232.805267 
	C493.226532,230.941742 491.409729,229.081528 491.149506,227.024399 
	C490.801514,224.273636 490.933075,220.978958 492.193359,218.635651 
	C493.628326,215.967453 496.647858,215.877548 499.742065,217.135056 
	C501.456421,217.831802 503.686310,217.259995 505.999512,217.259995 
	C505.999512,222.426514 506.430695,227.604294 505.790405,232.646011 
	C505.528992,234.704544 502.946320,236.468262 501.709869,238.683044 
	C499.629425,239.000000 497.258881,239.000000 494.444153,239.000000 
M500.029663,222.304626 
	C498.917206,222.138031 497.804749,221.971436 496.692291,221.804840 
	C496.801727,223.897461 496.911194,225.990082 497.020630,228.082703 
	C497.732208,228.131088 498.443756,228.179489 499.155334,228.227875 
	C499.591461,226.475998 500.027557,224.724121 500.029663,222.304626 
z"/>
<path fill="#FFFFFF" opacity="1.000000" stroke="none" 
	d="
M384.437500,239.000000 
	C382.685974,237.341187 381.371948,235.682358 379.733307,233.613754 
	C381.159119,233.260391 382.409790,232.950424 382.379639,232.957901 
	C381.572510,229.286804 380.272217,225.732193 380.137054,222.133804 
	C379.983551,218.047089 382.580841,215.800659 387.858612,216.953171 
	C388.985382,217.199219 390.209320,217.002548 391.388489,217.005753 
	C392.496552,217.008774 393.604614,217.006409 394.999512,217.006409 
	C394.999512,222.471451 395.430450,227.637466 394.790375,232.667191 
	C394.529266,234.718994 391.946320,236.475327 390.709839,238.683044 
	C388.958344,239.000000 386.916656,239.000000 384.437500,239.000000 
M389.440491,222.954773 
	C388.391266,222.412430 386.579193,221.224884 386.409058,221.426041 
	C384.364319,223.843674 384.532440,226.122437 388.078064,228.105698 
	C388.698425,226.597778 389.326141,225.072021 389.440491,222.954773 
z"/>
<path fill="#4285F5" opacity="1.000000" stroke="none" 
	d="
M256.912537,37.562927 
	C262.229218,38.368908 267.698456,38.567764 272.269257,40.696087 
	C281.208771,44.858627 289.646698,50.098297 298.646179,54.863113 
	C310.722046,61.781502 322.499939,68.636681 334.147156,75.707130 
	C342.537323,80.800385 344.265381,92.306450 339.139008,100.650696 
	C334.596558,108.044479 325.014008,111.269073 316.555542,107.026192 
	C308.151062,102.810364 300.042114,97.996918 291.867371,93.333641 
	C279.324890,86.178780 266.910370,78.796684 254.301331,71.762383 
	C245.277100,66.727974 241.328690,57.241100 245.039917,47.624973 
	C247.070297,42.364113 250.632431,38.537052 256.912537,37.562927 
z"/>
<path fill="#F3B400" opacity="1.000000" stroke="none" 
	d="
M410.700226,54.952484 
	C419.246674,59.285007 427.563019,63.619553 435.652405,68.342705 
	C440.838898,71.370949 446.118958,73.100410 452.588318,72.063354 
	C446.342407,76.238205 439.735535,80.565987 432.907288,84.510506 
	C420.284393,91.802452 407.307159,98.504509 394.898041,106.136093 
	C383.074066,113.407822 368.527039,105.267776 367.202118,91.557755 
	C366.388062,83.134125 371.659210,77.160187 378.714447,73.070007 
	C389.209259,66.985748 399.815277,61.093281 410.700226,54.952484 
z"/>
<path fill="#FFFFFF" opacity="1.000000" stroke="none" 
	d="
M214.000000,159.014038 
	C214.000000,154.878769 214.000000,151.240448 214.000000,146.597565 
	C221.509369,147.065659 228.986130,146.649918 236.045242,148.171631 
	C247.585251,150.659302 251.278595,161.434998 249.857224,171.734161 
	C248.127792,184.265808 238.274521,189.271561 229.886353,189.027512 
	C224.767639,188.878586 219.641083,189.000000 214.000000,189.000000 
	C214.000000,178.995590 214.000000,169.253296 214.000000,159.014038 
M236.999893,177.499802 
	C240.203842,173.651993 241.265503,164.916367 238.974335,160.910858 
	C236.816544,157.138489 232.273621,153.818100 224.268402,155.564423 
	C224.268402,164.003174 224.268402,172.430283 224.268402,182.204758 
	C228.750122,180.672256 232.586990,179.360260 236.999893,177.499802 
z"/>
<path fill="#FFFFFF" opacity="1.000000" stroke="none" 
	d="
M117.217453,182.578400 
	C114.430664,176.839218 114.275223,171.311295 116.114304,165.696060 
	C119.257515,156.098984 130.749664,154.106567 136.628555,160.925674 
	C136.872620,159.514938 137.069473,158.377090 137.273102,157.200043 
	C140.094406,157.200043 142.861282,157.200043 145.996613,157.200043 
	C145.996613,168.672653 146.087814,179.951019 145.891800,191.224380 
	C145.864471,192.795746 144.638657,194.505493 143.601059,195.873047 
	C138.591415,202.475815 126.406693,202.482529 120.302345,198.535690 
	C118.427048,197.323181 117.769836,194.226746 116.554855,191.992981 
	C119.486473,191.960922 123.185989,190.803497 125.171371,192.158188 
	C128.218552,194.237427 131.384476,194.947891 133.767548,193.334106 
	C135.848618,191.924805 136.536621,188.458359 137.302460,185.631271 
	C129.541473,189.963989 121.072853,188.915787 117.217453,182.578400 
M125.013390,176.872223 
	C126.587692,179.919296 129.197296,182.527161 132.336044,180.585480 
	C134.590225,179.191010 135.811432,175.731064 136.851547,172.952271 
	C137.307343,171.734512 136.174347,169.914322 135.741913,168.373535 
	C134.932755,165.490356 132.742722,164.030518 130.195663,165.156479 
	C128.147263,166.061996 126.202194,168.087997 125.163536,170.106781 
	C124.351738,171.684616 125.000893,174.014114 125.013390,176.872223 
z"/>
<path fill="#FFFFFF" opacity="1.000000" stroke="none" 
	d="
M18.519306,156.162750 
	C12.597337,160.803452 11.454416,169.436264 14.951071,175.818314 
	C17.066805,179.679901 20.288250,181.654648 24.644583,180.928436 
	C28.743431,180.245163 31.918819,178.277969 31.931049,173.074921 
	C29.054688,173.074921 26.287403,173.074921 23.261986,173.074921 
	C23.261986,170.682953 23.261986,168.607773 23.261986,166.000000 
	C26.141499,166.000000 29.087955,166.000000 32.034412,166.000000 
	C34.840618,166.000000 37.646824,166.000000 40.778538,166.000000 
	C41.249588,174.079361 42.281662,182.221436 33.704197,186.701218 
	C22.178936,192.720535 6.272418,188.752075 4.019930,173.376266 
	C2.096041,160.243484 5.874814,152.223816 15.496258,147.869781 
	C25.291687,143.436996 40.438435,149.356689 40.926655,160.673462 
	C36.686970,160.700638 32.443520,162.701233 29.007269,157.716919 
	C26.635746,154.277008 22.693155,154.069809 18.519306,156.162750 
z"/>
<path fill="#FFFFFF" opacity="1.000000" stroke="none" 
	d="
M522.230896,177.717957 
	C529.010559,183.413788 536.376831,181.287476 537.920044,173.225128 
	C535.136047,173.225128 532.395264,173.225128 529.327759,173.225128 
	C529.327759,170.812866 529.327759,168.734344 529.327759,166.325089 
	C534.799194,166.325089 540.547241,166.325089 546.348267,166.325089 
	C549.115723,178.481552 544.255493,185.442886 535.583618,188.683060 
	C522.936768,193.408417 509.582855,183.901855 509.055084,170.276077 
	C508.699982,161.106720 510.953827,152.999191 520.046387,148.416489 
	C530.567078,143.113998 545.239868,148.347473 546.830505,160.847290 
	C542.475220,160.801910 538.349304,162.219559 534.689697,157.521301 
	C530.934631,152.700516 522.602234,154.507690 520.358521,160.439041 
	C518.216248,166.102417 517.422363,172.155029 522.230896,177.717957 
z"/>
<path fill="#FFFFFF" opacity="1.000000" stroke="none" 
	d="
M654.000183,188.644348 
	C654.000000,192.548294 654.000000,196.018372 654.000000,199.742706 
	C650.666260,199.742706 647.593567,199.742706 644.256958,199.742706 
	C644.256958,185.669464 644.256958,171.598587 644.256958,157.263092 
	C647.004639,157.263092 649.754456,157.263092 652.846191,157.263092 
	C652.929565,158.628967 653.016724,160.056717 653.126282,161.851395 
	C653.539612,161.366730 653.835510,161.125046 653.997986,160.813705 
	C656.764465,155.509781 665.965881,155.675232 670.793640,160.343155 
	C676.617371,165.974152 676.385437,181.218765 670.753967,185.878647 
	C666.387512,189.491669 660.387634,190.339050 655.573792,187.175171 
	C655.365967,187.038559 654.538940,187.843918 654.000183,188.644348 
M662.413391,180.955429 
	C666.430847,177.425964 665.239258,172.695007 664.565369,168.534973 
	C664.330566,167.085892 660.879700,165.349915 658.834717,165.265366 
	C657.284058,165.201248 655.000977,167.226105 654.157471,168.886993 
	C652.317017,172.511093 652.705933,176.601471 655.394531,179.583298 
	C656.564331,180.880707 659.486389,180.598145 662.413391,180.955429 
z"/>
<path fill="#FFFFFF" opacity="1.000000" stroke="none" 
	d="
M413.002625,159.322678 
	C413.398926,159.919800 413.984375,160.379288 414.156372,160.257050 
	C423.716187,153.462234 433.949646,158.122116 434.887878,170.002930 
	C435.190460,173.835098 434.763855,177.944000 433.655518,181.620178 
	C431.701080,188.102661 420.848999,193.223816 413.224396,184.983002 
	C413.224396,190.076950 413.224396,194.744827 413.224396,199.701782 
	C410.075226,199.701782 407.334259,199.701782 404.292969,199.701782 
	C404.292969,185.748154 404.292969,171.669769 404.292969,157.157455 
	C407.165131,157.878845 410.613800,154.867676 413.002625,159.322678 
M413.997589,168.683853 
	C412.120850,172.760239 412.605133,176.723541 415.593445,179.870834 
	C416.724518,181.062073 419.468719,181.743225 421.071655,181.273010 
	C425.843842,179.873093 424.687561,175.529739 425.070770,171.881592 
	C425.425934,168.500412 423.783875,166.198380 421.167297,165.231949 
	C418.561676,164.269547 415.521271,164.569290 413.997589,168.683853 
z"/>
<path fill="#FFFFFF" opacity="1.000000" stroke="none" 
	d="
M174.309921,188.081207 
	C164.591599,181.947495 164.088943,171.308548 168.945740,163.204300 
	C172.048141,158.027512 179.165436,155.396774 185.744125,157.253143 
	C192.418076,159.136398 195.962555,163.594131 195.998489,170.159744 
	C196.008316,171.954361 196.000000,173.749084 196.000000,175.863205 
	C188.964142,175.863205 182.221130,175.863205 175.363434,175.863205 
	C177.898346,182.680115 180.978226,183.470825 186.626953,180.167023 
	C189.058243,178.745026 192.517029,179.079788 195.629379,178.597794 
	C195.295563,187.835968 186.377502,191.642212 174.309921,188.081207 
M178.778305,165.023880 
	C177.547195,166.510544 176.316071,167.997223 174.912567,169.692078 
	C179.413513,169.692078 183.147949,169.692078 186.933289,169.692078 
	C185.605789,164.424576 183.998001,163.442261 178.778305,165.023880 
z"/>
<path fill="#FFFFFF" opacity="1.000000" stroke="none" 
	d="
M254.579407,178.094696 
	C253.470688,170.182373 253.797684,163.127899 261.679321,158.761017 
	C270.613129,153.811142 284.897858,158.558945 284.010040,171.970154 
	C283.934204,173.115646 284.000000,174.270493 284.000000,175.760864 
	C277.101868,175.760864 270.343445,175.760864 263.515625,175.760864 
	C264.865631,182.212219 269.083496,183.523987 274.422821,180.355972 
	C276.972626,178.843063 280.566254,179.089417 283.910980,178.499435 
	C283.004700,185.680984 278.191711,189.365265 269.890259,189.977844 
	C263.151703,190.475082 256.622925,185.433212 254.579407,178.094696 
M270.422089,170.000000 
	C271.881836,170.000000 273.341583,170.000000 275.001495,170.000000 
	C274.817780,166.355759 273.122986,164.351379 269.978699,164.057495 
	C265.887451,163.675110 264.560913,166.737244 263.250000,170.000000 
	C265.536865,170.000000 267.532715,170.000000 270.422089,170.000000 
z"/>
<path fill="#FFFFFF" opacity="1.000000" stroke="none" 
	d="
M327.552856,158.149963 
	C338.073181,154.378662 351.257355,159.275070 348.781708,175.767303 
	C342.087006,175.767303 335.326355,175.767303 328.495239,175.767303 
	C329.885193,182.220718 334.082367,183.511932 339.439209,180.342010 
	C341.985107,178.835480 345.576508,179.095810 348.920959,178.516464 
	C347.980438,185.671204 343.063904,189.418625 334.863647,189.979004 
	C328.527832,190.411972 322.105225,185.811447 319.996033,179.329330 
	C317.128967,170.517990 319.801178,162.684052 327.552856,158.149963 
M330.000061,166.501999 
	C329.420715,167.580612 328.841370,168.659210 328.196014,169.860657 
	C332.267242,169.860657 336.010223,169.860657 341.298248,169.860657 
	C339.286407,167.428909 338.223755,164.964691 336.579651,164.482285 
	C334.866241,163.979584 332.591980,165.388260 330.000061,166.501999 
z"/>
<path fill="#FFFFFF" opacity="1.000000" stroke="none" 
	d="
M466.848694,163.539490 
	C467.872009,167.642639 468.751282,171.378632 469.785187,175.771622 
	C462.063690,175.771622 455.164948,175.771622 448.221893,175.771622 
	C448.844757,181.377991 453.328430,183.836349 457.841553,181.739349 
	C461.063416,180.242310 464.471191,179.145477 468.492249,177.602966 
	C467.015930,186.493881 460.071838,190.846771 452.700745,189.401627 
	C447.915283,188.463394 443.795776,187.234436 440.870605,182.822617 
	C437.541229,177.801086 438.336121,163.700104 443.575348,160.102829 
	C449.915833,155.749420 459.975403,154.716797 466.848694,163.539490 
M448.041748,168.957855 
	C451.923767,169.441711 455.805786,169.925568 459.687805,170.409424 
	C459.980591,169.825470 460.273376,169.241516 460.566193,168.657562 
	C458.632538,167.109543 456.719696,164.369720 454.759644,164.335526 
	C452.632843,164.298431 450.462097,166.780106 448.041748,168.957855 
z"/>
<path fill="#FFFFFF" opacity="1.000000" stroke="none" 
	d="
M81.593887,165.892365 
	C83.831474,158.448959 92.186577,155.944534 99.538757,157.098679 
	C105.072472,157.967346 110.340591,162.176254 111.094505,169.922562 
	C112.158539,180.855164 108.040581,187.648758 98.821388,189.175247 
	C90.894135,190.487854 82.503067,186.262192 81.146255,178.489395 
	C80.452217,174.513428 81.201546,170.285492 81.593887,165.892365 
M98.997078,165.493515 
	C96.795708,163.086304 94.801506,163.571594 92.700348,165.748474 
	C89.322701,169.247864 88.866798,174.557861 91.703796,179.271912 
	C93.943588,182.993607 98.108932,182.951263 100.356773,179.210892 
	C103.107620,174.633545 102.476990,170.279633 98.997078,165.493515 
z"/>
<path fill="#FFFFFF" opacity="1.000000" stroke="none" 
	d="
M599.176514,186.322998 
	C594.700745,188.447662 590.660278,189.583786 585.696594,189.279144 
	C576.454468,188.711960 570.604797,176.267426 573.844421,168.112595 
	C576.775208,160.735214 580.139832,157.168594 586.228149,157.000031 
	C595.629211,156.739792 600.883301,159.355972 603.240112,166.943466 
	C605.331787,173.677536 604.698914,180.468933 599.176514,186.322998 
M584.359192,166.118103 
	C583.928589,169.786255 582.922913,173.516724 583.310913,177.096130 
	C583.503601,178.873367 586.054260,181.317413 587.910767,181.713486 
	C589.530579,182.059082 592.029480,180.301102 593.466797,178.819504 
	C594.535461,177.717896 594.826843,175.592896 594.947083,173.887222 
	C595.460938,166.595108 590.789124,162.773270 584.359192,166.118103 
z"/>
<path fill="#FFFFFF" opacity="1.000000" stroke="none" 
	d="
M54.229889,188.051529 
	C45.896492,183.533630 43.191853,172.684280 47.943233,164.276566 
	C52.544903,156.133743 62.000118,155.019516 70.153923,159.079834 
	C74.851402,161.419006 78.170242,170.681824 76.983910,176.886017 
	C75.795013,183.103622 70.809952,188.333923 64.736778,188.894760 
	C61.417965,189.201248 57.998024,188.412674 54.229889,188.051529 
M58.027699,165.468338 
	C54.125957,169.329605 54.345169,173.902710 56.230785,178.435440 
	C57.937946,182.539169 62.882992,183.284729 65.387268,180.119019 
	C67.505997,177.440674 67.568268,170.118729 65.739578,167.156754 
	C63.945473,164.250793 61.826134,163.145309 58.027699,165.468338 
z"/>
<path fill="#FFFFFF" opacity="1.000000" stroke="none" 
	d="
M391.099213,158.588348 
	C400.744812,163.122543 400.496246,175.517944 397.412537,181.948288 
	C393.671631,189.748993 383.713898,191.166046 376.547485,188.108231 
	C369.164246,184.957916 366.227448,173.930771 369.650055,165.385422 
	C372.607513,158.001495 383.433472,154.940598 391.099213,158.588348 
M389.976105,170.914337 
	C388.988953,167.523666 387.466919,164.164459 383.524475,164.224258 
	C381.843567,164.249756 379.774078,166.382492 378.673828,168.073410 
	C377.814575,169.393997 378.070496,171.507965 378.022278,173.274612 
	C377.916534,177.147644 378.167603,181.051544 382.990997,181.937363 
	C386.403137,182.564026 389.150299,179.344406 389.980072,174.232956 
	C390.110992,173.426620 389.998383,172.580750 389.976105,170.914337 
z"/>
<path fill="#FFFFFF" opacity="1.000000" stroke="none" 
	d="
M613.972778,157.000000 
	C617.201599,156.537460 618.228149,157.542755 618.065735,160.456772 
	C617.815735,164.942078 617.868591,169.456619 618.041382,173.949219 
	C618.181152,177.581787 619.154297,181.114853 623.730225,180.914841 
	C627.845825,180.734955 628.909058,177.486542 628.973389,173.982422 
	C629.073792,168.508896 629.000000,163.032166 629.000000,157.279419 
	C631.964172,157.279419 634.703003,157.279419 637.724487,157.279419 
	C637.724487,167.622147 637.724487,178.032623 637.724487,188.722702 
	C635.021667,188.722702 632.271606,188.722702 629.170471,188.722702 
	C629.068176,187.706299 628.954651,186.578094 628.809814,185.138748 
	C624.711548,190.059906 619.728638,189.942505 614.904053,188.239273 
	C610.124451,186.551926 608.971802,182.208878 608.992554,177.504715 
	C609.021912,170.861130 609.000000,164.217331 609.000000,157.232193 
	C610.633484,157.147842 612.065125,157.073914 613.972778,157.000000 
z"/>
<path fill="#FFFFFF" opacity="1.000000" stroke="none" 
	d="
M687.932617,179.794128 
	C690.426758,180.786407 692.812622,181.480789 695.247498,181.796371 
	C695.729431,181.858826 696.945068,180.382431 696.850647,179.764175 
	C696.722046,178.922699 695.787842,177.783707 694.973450,177.546249 
	C692.507690,176.827255 689.883179,176.656433 687.412170,175.951035 
	C683.203979,174.749771 679.427734,172.717453 679.083252,167.758865 
	C678.768066,163.222092 681.333191,160.212204 685.307617,158.240494 
	C691.814270,155.012558 701.513123,157.030426 704.913879,162.503082 
	C705.630493,163.656326 705.844788,165.121735 706.460693,166.947998 
	C702.445984,166.357300 698.540710,168.918640 695.780457,164.504028 
	C695.306946,163.746780 692.902954,163.799881 691.545593,164.124985 
	C690.566101,164.359573 689.843262,165.666000 689.005981,166.494385 
	C689.840393,167.326828 690.534912,168.570541 691.536560,168.911316 
	C694.099060,169.783051 696.775391,170.382599 699.447937,170.854446 
	C704.016663,171.661072 706.863159,173.986343 706.988342,178.864380 
	C707.116882,183.874130 703.812561,186.833359 699.870911,188.447876 
	C695.391663,190.282593 690.531738,190.003494 685.799805,188.360809 
	C681.305908,186.800751 678.877197,183.811768 678.462769,178.869064 
	C681.576843,179.033203 684.709167,179.198288 687.932617,179.794128 
z"/>
<path fill="#FFFFFF" opacity="1.000000" stroke="none" 
	d="
M293.984009,181.135345 
	C291.156372,173.071304 288.345551,165.417404 285.356995,157.279480 
	C289.192871,157.279480 292.274384,157.279480 295.657166,157.279480 
	C297.528168,163.840378 299.451691,170.585510 301.550354,177.944672 
	C303.078918,173.507141 304.630493,169.511703 305.831207,165.413483 
	C308.510101,156.270081 308.438721,156.249176 317.790771,157.392075 
	C314.511444,167.077652 311.322723,176.796494 307.815735,186.399124 
	C307.383148,187.583588 305.336914,188.644287 303.890869,188.888412 
	C301.472992,189.296646 298.936035,188.999924 296.497711,188.999924 
	C295.613739,186.360779 294.807312,183.953125 293.984009,181.135345 
z"/>
<path fill="#FFFFFF" opacity="1.000000" stroke="none" 
	d="
M158.873413,188.997635 
	C156.435196,188.999695 154.472702,188.999695 152.256424,188.999695 
	C152.256424,175.051315 152.256424,161.354721 152.256424,147.328430 
	C154.854919,147.328430 157.589813,147.328430 161.000000,147.328430 
	C161.000000,153.465042 161.000015,159.862381 161.000000,166.259735 
	C161.000000,172.728790 161.077972,179.199677 160.925720,185.665161 
	C160.899307,186.787048 159.899399,187.886017 158.873413,188.997635 
z"/>
<path fill="#FFFFFF" opacity="1.000000" stroke="none" 
	d="
M363.000000,153.091827 
	C363.000000,165.173416 363.000000,176.766968 363.000000,188.679962 
	C360.122437,188.679962 357.390167,188.679962 354.326233,188.679962 
	C354.326233,175.083420 354.326233,161.267395 354.326233,147.224472 
	C357.061401,147.224472 359.789001,147.224472 363.000000,147.224472 
	C363.000000,149.060471 363.000000,150.832123 363.000000,153.091827 
z"/>
<path fill="#FFFFFF" opacity="1.000000" stroke="none" 
	d="
M568.951050,165.001282 
	C563.599426,165.307709 561.879578,168.218185 561.974792,172.829391 
	C562.083740,178.105682 562.000000,183.385941 562.000000,188.826553 
	C558.951355,188.826553 556.331299,188.826553 553.354858,188.826553 
	C553.354858,178.425003 553.354858,167.906036 553.354858,156.948853 
	C556.373779,157.931702 560.281677,154.885178 562.302429,158.996857 
	C565.148743,158.205597 568.274536,157.336670 571.823914,156.349976 
	C571.823914,159.983902 571.823914,162.608246 571.823914,165.537186 
	C571.015381,165.361191 570.190979,165.181732 568.951050,165.001282 
z"/>
<path fill="#FFFFFF" opacity="1.000000" stroke="none" 
	d="
M474.001709,159.227814 
	C476.777313,155.786438 481.985107,156.292068 482.915009,158.870438 
	C486.112549,158.048904 489.237183,157.246109 492.789917,156.333328 
	C492.789917,159.714447 492.789917,162.140091 492.789917,165.011230 
	C491.264130,165.011230 489.738464,164.699966 488.404846,165.073853 
	C485.308167,165.942017 482.718842,167.230545 482.928894,171.375031 
	C483.214386,177.008682 483.000031,182.667648 483.000031,188.657623 
	C480.156952,188.657623 477.417877,188.657623 474.000183,188.657623 
	C474.000183,179.190750 474.000183,169.448227 474.001709,159.227814 
z"/>
<path fill="#4285F5" opacity="1.000000" stroke="none" 
	d="
M103.079102,230.989807 
	C102.080246,229.494843 101.266144,228.043655 101.068184,226.512772 
	C100.799141,224.432190 101.001160,222.290695 101.001160,218.898392 
	C95.921715,222.649048 99.419769,227.299606 97.319145,230.748322 
	C96.228043,230.748322 94.840096,230.748322 93.222626,230.748322 
	C93.222626,225.499130 93.222626,220.409393 93.222626,215.001648 
	C99.077858,215.001648 104.783363,214.661942 110.401947,215.211273 
	C112.060028,215.373398 114.443855,217.854568 114.792328,219.610870 
	C115.485725,223.105515 114.997566,226.834625 114.997566,230.728058 
	C113.264999,230.728058 111.875458,230.728058 109.999374,230.728058 
	C109.999374,228.183945 110.129066,225.721542 109.940643,223.283737 
	C109.855782,222.185776 109.136253,221.136902 108.704697,220.065750 
	C108.136917,221.165924 107.301010,222.212921 107.069595,223.379807 
	C106.783813,224.820816 106.848160,226.380524 107.032593,227.854996 
	C107.388901,230.703522 105.933411,231.320435 103.079102,230.989807 
z"/>
<path fill="#4285F5" opacity="1.000000" stroke="none" 
	d="
M116.998802,227.946289 
	C116.998802,223.485992 116.998802,219.512787 116.998802,215.006943 
	C120.945999,215.006943 124.599800,214.780228 128.212296,215.069397 
	C131.976669,215.370728 134.217300,220.890961 132.925751,226.063980 
	C131.908630,230.137833 128.585892,231.620743 123.313324,230.095062 
	C123.141312,231.892288 122.975189,233.627991 122.778564,235.682404 
	C121.082657,235.682404 119.332352,235.682404 116.998802,235.682404 
	C116.998802,233.324051 116.998802,230.878708 116.998802,227.946289 
z"/>
<path fill="#FFFFFF" opacity="1.000000" stroke="none" 
	d="
M419.610077,218.869125 
	C420.468506,213.544296 424.363586,211.907761 428.369934,211.383133 
	C432.433746,210.850983 435.916016,213.039886 437.831757,216.704117 
	C439.812347,220.492249 439.875183,224.544266 437.254517,228.171371 
	C434.455841,232.044968 428.550262,233.624817 424.466614,231.820908 
	C420.898071,230.244537 418.742615,224.945999 419.610077,218.869125 
M432.607330,219.082794 
	C430.895172,218.456711 428.215271,216.850098 427.660980,217.397171 
	C426.263824,218.776108 425.173218,221.143356 425.225861,223.080078 
	C425.262177,224.414749 427.299469,226.669312 428.639008,226.825287 
	C434.383362,227.494217 432.638245,222.922440 432.607330,219.082794 
z"/>
<path fill="#4285F5" opacity="1.000000" stroke="none" 
	d="
M29.381992,227.090347 
	C24.297176,231.930344 19.270693,232.392456 15.153311,228.650620 
	C11.340158,225.185287 10.646966,217.773102 13.761706,213.770309 
	C17.118309,209.456696 22.474676,208.682953 27.395340,211.800888 
	C31.391291,214.332901 32.329243,220.515259 29.381992,227.090347 
M20.707741,225.920776 
	C25.636059,224.729904 26.938110,222.439285 24.928688,217.755234 
	C24.430828,216.594681 22.733315,215.107346 21.737444,215.211151 
	C20.441645,215.346222 18.257166,216.949783 18.283871,217.868179 
	C18.358232,220.425491 19.377069,222.955353 20.707741,225.920776 
z"/>
<path fill="#FFFFFF" opacity="1.000000" stroke="none" 
	d="
M202.320648,224.231049 
	C200.594711,230.343231 198.652267,231.956223 193.019531,231.996979 
	C190.540009,232.014908 188.060257,232.000000 185.291016,232.000000 
	C185.291016,225.410141 185.291016,219.003342 185.291016,212.577805 
	C197.862976,210.451660 202.988266,212.978516 202.320648,224.231049 
M191.353210,217.006927 
	C190.726944,220.224503 190.100677,223.442078 189.463074,226.717865 
	C193.528946,227.278366 196.482330,227.229279 196.958664,223.184128 
	C197.361725,219.761200 196.635651,216.901047 191.353210,217.006927 
z"/>
<path fill="#FFFFFF" opacity="1.000000" stroke="none" 
	d="
M324.687622,212.011292 
	C326.997833,214.223679 328.909851,216.426041 330.821899,218.628403 
	C330.393982,219.259781 329.966095,219.891159 329.538208,220.522522 
	C327.594421,219.780762 325.702606,218.784912 323.691254,218.373810 
	C321.931305,218.014069 318.494110,218.055359 318.443695,218.359024 
	C317.999298,221.034164 318.146790,223.807602 318.119141,226.551971 
	C320.068848,226.392380 322.102325,226.523529 323.944946,225.992493 
	C325.835938,225.447525 327.540375,224.255219 330.043793,222.981155 
	C328.977692,230.111603 325.075439,233.464371 320.221863,232.656555 
	C314.003540,231.621597 309.631378,225.838654 311.078400,220.029816 
	C312.485809,214.380035 316.239655,210.063766 324.687622,212.011292 
z"/>
<path fill="#4285F5" opacity="1.000000" stroke="none" 
	d="
M67.364838,225.254913 
	C69.879921,224.148102 72.051247,223.251831 74.901123,222.075470 
	C73.212708,228.959213 69.752686,231.519012 64.181992,230.996582 
	C59.810524,230.586624 56.206059,226.646179 56.000515,222.052505 
	C55.706169,215.474274 58.647442,210.797043 63.569820,210.015778 
	C69.085449,209.140366 72.981476,211.664337 75.351097,218.966187 
	C72.344467,217.639648 70.394524,216.557190 68.307281,215.936249 
	C66.907822,215.519897 64.234230,215.264145 63.993977,215.789169 
	C62.969639,218.027679 62.114002,220.627914 62.314190,223.001923 
	C62.394028,223.948654 65.365799,224.651550 67.364838,225.254913 
z"/>
<path fill="#FFFFFF" opacity="1.000000" stroke="none" 
	d="
M634.135132,212.002380 
	C637.717529,212.158295 641.411560,211.345642 643.764526,212.761520 
	C645.893677,214.042694 647.834778,217.902847 647.552795,220.361374 
	C647.184692,223.571365 644.645569,226.628891 640.246887,226.018982 
	C639.308716,225.888885 638.337036,226.000031 637.164551,226.000031 
	C637.164551,227.966736 637.164551,229.590607 637.164551,231.767029 
	C635.472473,231.855621 633.964111,231.934601 632.003113,232.037277 
	C632.003113,225.750732 631.954102,219.794754 632.075745,213.842270 
	C632.088501,213.219101 633.109436,212.616547 634.135132,212.002380 
z"/>
<path fill="#FFFFFF" opacity="1.000000" stroke="none" 
	d="
M457.002045,229.802032 
	C457.000244,223.704880 457.000244,218.090622 457.000244,212.240784 
	C462.039612,212.240784 466.773895,212.240784 471.753357,212.240784 
	C471.753357,213.345978 471.753357,214.415527 471.753357,215.440125 
	C469.409851,217.891754 463.638336,212.895981 462.733887,219.814850 
	C465.555664,219.814850 467.976562,219.814850 470.756134,219.814850 
	C470.826538,221.346603 470.880737,222.525330 470.945374,223.930939 
	C468.233185,223.930939 465.943085,223.930939 463.296844,223.930939 
	C463.203735,225.295135 463.123444,226.471664 463.026672,227.889297 
	C466.042542,227.889297 468.664368,227.889297 471.655945,227.889297 
	C471.766968,229.248291 471.863037,230.424423 471.944305,231.419067 
	C469.866669,232.848221 458.505951,231.805542 457.002045,229.802032 
z"/>
<path fill="#FFFFFF" opacity="1.000000" stroke="none" 
	d="
M262.987823,217.341858 
	C262.800842,224.695648 261.730652,225.560471 252.095062,226.297226 
	C252.095062,228.013199 252.095062,229.765686 252.095062,231.757233 
	C250.318192,231.757233 248.904434,231.757233 247.243515,231.757233 
	C247.243515,225.373917 247.243515,218.954987 247.243515,211.925674 
	C252.754898,213.086487 259.587128,208.852676 262.987823,217.341858 
M254.161682,221.972000 
	C255.098709,220.712738 256.035736,219.453491 256.972748,218.194229 
	C255.550140,217.327103 254.127533,216.459976 252.704926,215.592850 
	C252.317017,215.938675 251.929123,216.284515 251.541214,216.630341 
	C252.132462,218.417313 252.723709,220.204285 254.161682,221.972000 
z"/>
<path fill="#4285F6" opacity="1.000000" stroke="none" 
	d="
M78.544060,221.258194 
	C76.174553,218.593765 76.574486,217.130936 79.583649,215.787476 
	C85.736664,213.040466 90.911659,216.102325 91.007271,222.805573 
	C91.030968,224.466690 91.175804,226.152100 90.945930,227.781342 
	C90.801331,228.806198 90.043427,230.602737 89.594337,230.592392 
	C85.533745,230.498810 80.878189,231.209351 77.590317,229.451843 
	C74.124039,227.598923 75.701492,223.896759 78.544060,221.258194 
z"/>
<path fill="#FFFFFF" opacity="1.000000" stroke="none" 
	d="
M274.885925,231.999847 
	C272.244568,231.999985 269.929443,232.477310 267.956024,231.860825 
	C266.116028,231.286026 263.514282,229.743805 263.259338,228.277695 
	C262.849396,225.919693 263.673187,223.041977 267.376984,222.941330 
	C268.822601,222.902054 270.250244,222.201035 271.545135,221.162659 
	C269.081940,221.465149 266.618713,221.767639 264.083984,222.078903 
	C263.749115,216.984695 267.792175,216.157028 270.256378,216.321548 
	C272.888062,216.497253 276.618225,218.553299 277.586700,220.780807 
	C278.867584,223.726913 278.000183,227.640427 277.834564,231.127609 
	C277.818909,231.456711 276.223328,231.710800 274.885925,231.999847 
z"/>
<path fill="#4285F5" opacity="1.000000" stroke="none" 
	d="
M152.139832,222.322479 
	C152.025543,215.664230 156.685623,212.952621 162.500046,215.849167 
	C165.842224,217.514145 166.041641,218.791473 164.210861,220.689850 
	C164.899017,223.229965 166.462662,226.030640 165.729172,226.905579 
	C164.145691,228.794388 161.518188,230.340317 159.072144,230.851959 
	C155.160095,231.670242 152.048981,230.032715 150.936813,225.413208 
	C152.226349,225.143646 153.402802,224.897720 154.622910,224.642670 
	C153.752014,223.933136 152.998795,223.319489 152.139832,222.322479 
z"/>
<path fill="#4285F5" opacity="1.000000" stroke="none" 
	d="
M34.144127,230.918839 
	C33.361179,225.804581 33.040585,220.752136 32.675987,215.006195 
	C36.817760,215.006195 40.487598,214.600800 43.987839,215.194794 
	C45.503963,215.452087 47.579865,217.631897 47.814411,219.179047 
	C48.375744,222.881699 47.995747,226.727051 47.995747,230.748901 
	C46.235340,230.748901 44.849792,230.748901 43.577667,230.748901 
	C41.338005,227.423965 45.821423,221.877060 39.252125,219.525711 
	C39.252125,223.497650 39.252125,226.888123 39.252125,230.698456 
	C37.428539,230.809235 36.017509,230.894943 34.144127,230.918839 
z"/>
<path fill="#FFFFFF" opacity="1.000000" stroke="none" 
	d="
M378.994537,224.283600 
	C375.825317,225.346008 372.659637,225.977310 369.493988,226.608612 
	C369.456116,226.881638 369.418243,227.154663 369.380402,227.427689 
	C372.394379,227.288620 375.408356,227.149551 378.469025,227.008331 
	C378.253510,232.049866 373.995056,232.590576 370.917480,232.719528 
	C367.447998,232.864914 363.673767,230.508621 363.542847,226.708496 
	C363.441101,223.756287 364.951019,220.137436 366.948303,217.879684 
	C369.410248,215.096649 373.299957,216.043625 375.978729,218.149078 
	C377.524536,219.364014 378.026367,221.907166 378.994537,224.283600 
z"/>
<path fill="#FFFFFF" opacity="1.000000" stroke="none" 
	d="
M589.997925,229.864471 
	C588.335815,231.111526 586.675537,231.899323 584.345825,233.004776 
	C584.345825,227.062347 584.345825,222.176666 584.345825,217.612122 
	C587.606812,217.080429 591.143188,215.483810 593.895203,216.357651 
	C596.376099,217.145416 598.700073,220.352158 599.790283,223.023758 
	C600.775513,225.438034 599.998413,228.571472 599.998413,231.777283 
	C598.104431,231.869858 596.364624,231.954895 593.998962,232.070541 
	C593.998962,229.288116 594.180176,226.667877 593.911804,224.094543 
	C593.800964,223.032013 592.725220,222.070160 592.088318,221.062531 
	C591.393066,222.011383 590.289673,222.883530 590.093750,223.926208 
	C589.761047,225.695908 590.000610,227.573166 589.997925,229.864471 
z"/>
<path fill="#4285F5" opacity="1.000000" stroke="none" 
	d="
M144.002289,218.149506 
	C143.971909,212.924896 147.520340,215.905273 149.684265,214.710785 
	C149.684265,220.268036 149.684265,225.340866 149.684265,230.991745 
	C146.415070,230.991745 143.106644,231.150040 139.820847,230.945160 
	C136.815353,230.757767 135.073441,228.965363 135.018005,225.863647 
	C134.956146,222.402344 135.003830,218.939072 135.003830,215.248260 
	C136.776627,215.248260 138.166229,215.248260 139.379059,215.248260 
	C141.700043,218.577423 137.125839,224.178299 144.001526,226.532944 
	C144.001526,223.442871 144.001526,221.027710 144.002289,218.149506 
z"/>
<path fill="#FFFFFF" opacity="1.000000" stroke="none" 
	d="
M404.081421,227.967468 
	C406.869568,227.588486 409.218903,227.181534 411.805695,226.733475 
	C410.568573,231.423462 407.720734,233.175049 403.610138,232.236130 
	C398.107330,230.979172 396.068085,227.952850 397.009125,222.440033 
	C397.679779,218.511002 401.517670,215.644470 405.460815,216.127426 
	C409.898499,216.670959 412.192505,220.200882 411.615387,226.003998 
	C409.361115,226.003998 407.058929,225.906113 404.779755,226.091309 
	C404.353485,226.125931 404.019348,227.294342 404.081421,227.967468 
z"/>
<path fill="#FFFFFF" opacity="1.000000" stroke="none" 
	d="
M687.250732,231.985657 
	C682.355103,227.957397 681.460144,222.437714 684.850952,218.702164 
	C687.434326,215.856155 690.691040,215.663971 694.075867,217.044754 
	C696.894714,218.194656 698.067627,221.199371 697.602844,226.001373 
	C694.562073,226.001373 691.485107,226.001373 688.408142,226.001373 
	C688.421692,226.543869 688.435242,227.086365 688.448792,227.628860 
	C691.503906,227.429123 694.559021,227.229401 697.708862,227.023468 
	C696.457947,231.899506 693.417358,233.336166 687.250732,231.985657 
z"/>
<path fill="#FFFFFF" opacity="1.000000" stroke="none" 
	d="
M547.853027,222.599960 
	C547.178101,224.001511 546.504395,225.680420 545.545776,225.862915 
	C543.302856,226.289963 540.923340,225.999344 538.502075,227.055511 
	C541.424988,227.055511 544.347900,227.055511 547.305969,227.055511 
	C546.131226,231.051132 543.142395,233.484894 539.611145,232.862473 
	C535.331665,232.108200 532.405945,229.116180 532.224670,225.036011 
	C532.061890,221.371780 533.708008,217.903366 538.281067,216.898666 
	C542.180786,216.041916 544.911926,217.104263 546.826599,220.515686 
	C547.137573,221.069748 547.426025,221.636459 547.853027,222.599960 
z"/>
<path fill="#FFFFFF" opacity="1.000000" stroke="none" 
	d="
M553.174500,217.015350 
	C559.433044,215.466888 565.215759,218.305099 563.709229,225.883453 
	C560.649353,225.883453 557.528931,225.883453 554.408508,225.883453 
	C554.381165,226.279434 554.353821,226.675400 554.326477,227.071381 
	C557.482971,227.071381 560.639404,227.071381 564.095459,227.071381 
	C562.882874,231.484314 559.346680,232.678055 556.291077,232.450607 
	C553.809082,232.265839 550.041016,230.243958 549.420654,228.239273 
	C548.220154,224.359650 547.850891,219.599075 553.174500,217.015350 
z"/>
<path fill="#FFFFFF" opacity="1.000000" stroke="none" 
	d="
M228.000000,228.162689 
	C228.629898,233.938675 224.747314,231.414169 223.707352,231.706818 
	C220.896210,224.894012 218.253159,218.488541 215.610916,212.085037 
	C217.374207,212.085037 219.349350,212.085037 221.444153,212.085037 
	C222.631531,214.286499 223.830215,216.508911 225.303894,219.241165 
	C227.481613,215.316772 228.332077,210.046616 234.326019,212.281265 
	C232.259293,217.324692 230.129654,222.521652 228.000000,228.162689 
z"/>
<path fill="#FFFFFF" opacity="1.000000" stroke="none" 
	d="
M679.913330,231.964813 
	C677.229919,232.217896 675.691223,232.028687 675.909424,228.981522 
	C676.100098,226.318787 675.511108,223.600220 675.266602,220.906311 
	C674.409485,220.899277 673.552368,220.892227 672.695251,220.885193 
	C672.352966,224.372299 672.010681,227.859421 671.624207,231.796494 
	C670.122864,231.875244 668.376648,231.966827 666.310425,232.075195 
	C666.310425,227.064117 666.310425,222.199890 666.310425,217.434891 
	C669.448547,216.991516 672.569397,215.891113 675.425720,216.369629 
	C677.465942,216.711426 680.390564,218.937119 680.732544,220.737793 
	C681.412659,224.318466 680.584167,228.185684 679.913330,231.964813 
z"/>
<path fill="#FFFFFF" opacity="1.000000" stroke="none" 
	d="
M336.997009,216.979004 
	C341.250824,216.091599 344.561035,216.443985 346.250183,220.739212 
	C347.834412,224.767624 347.483521,228.512085 344.078400,231.324478 
	C341.178131,233.719940 336.111847,232.725006 333.320801,229.856796 
	C329.948334,226.391098 330.743591,222.882980 333.149902,219.479675 
	C333.923431,218.385681 335.431396,217.811005 336.997009,216.979004 
M339.654785,221.007080 
	C336.037292,221.393219 336.987183,224.123764 337.179779,226.230576 
	C337.237152,226.858063 338.500397,227.375290 339.211121,227.943039 
	C339.806793,226.262100 340.482117,224.602905 340.950409,222.887207 
	C341.094147,222.360474 340.671021,221.679016 339.654785,221.007080 
z"/>
<path fill="#FFFFFF" opacity="1.000000" stroke="none" 
	d="
M521.594116,217.605652 
	C527.282532,215.132706 530.780945,217.170273 530.981567,222.820221 
	C531.085999,225.760437 530.999939,228.707397 530.999939,231.818329 
	C528.871704,231.818329 527.138733,231.818329 525.413818,231.818329 
	C525.009644,228.056305 524.623657,224.464081 524.237732,220.871857 
	C523.579102,220.888092 522.920532,220.904327 522.261902,220.920547 
	C521.841309,222.693665 521.260010,224.447632 521.045715,226.245331 
	C520.835876,228.005234 521.000061,229.809753 521.000061,231.793945 
	C519.250977,231.793945 517.849365,231.793945 516.222778,231.793945 
	C516.222778,226.979980 516.222778,222.236633 516.222778,216.875854 
	C517.928955,217.164215 519.569763,217.441528 521.594116,217.605652 
z"/>
<path fill="#FFFFFF" opacity="1.000000" stroke="none" 
	d="
M482.367188,216.246033 
	C492.632721,218.026764 487.603882,225.950363 489.445282,231.754883 
	C487.089020,231.869980 485.357544,231.954544 483.436371,232.048386 
	C483.033112,228.237747 482.646088,224.580185 482.259033,220.922607 
	C481.520996,220.908325 480.782928,220.894043 480.044891,220.879761 
	C479.553223,224.363449 479.061523,227.847153 478.519989,231.684204 
	C477.347870,231.684204 475.841339,231.684204 474.162842,231.684204 
	C474.162842,226.805664 474.162842,222.054901 474.162842,217.445755 
	C476.900208,217.101303 479.466125,216.778412 482.367188,216.246033 
z"/>
<path fill="#FFFFFF" opacity="1.000000" stroke="none" 
	d="
M659.029419,218.182755 
	C660.553223,217.434357 662.051758,217.141144 663.803101,216.798462 
	C663.803101,222.110168 663.803101,226.871063 663.803101,231.999939 
	C660.773071,231.999939 657.822083,231.756775 654.927856,232.057983 
	C650.781860,232.489502 649.237610,230.312347 649.037048,226.730316 
	C648.862732,223.616501 649.000793,220.485199 649.000793,217.187653 
	C651.123108,217.187653 652.861206,217.187653 655.423340,217.187653 
	C655.423340,220.817841 655.423340,224.290863 655.423340,228.141373 
	C660.657898,225.750977 658.460083,221.778091 659.029419,218.182755 
z"/>
<path fill="#FFFFFF" opacity="1.000000" stroke="none" 
	d="
M448.757385,211.000763 
	C449.711090,211.525497 450.769470,212.410843 450.695374,212.518814 
	C449.748657,213.898041 448.639679,215.165909 447.597870,216.430573 
	C450.687805,217.854309 450.833466,219.003098 448.348328,221.070892 
	C447.581329,221.709122 447.140228,223.067673 447.059021,224.135147 
	C446.872803,226.582993 447.000061,229.054688 447.000061,231.755951 
	C445.313446,231.755951 443.912872,231.755951 442.393188,231.755951 
	C442.276337,231.355927 442.104340,230.910294 442.017944,230.448669 
	C441.341125,226.833237 440.689270,223.213120 440.012848,219.597610 
	C439.355286,216.082687 444.168823,211.101715 448.757385,211.000763 
z"/>
<path fill="#FFFFFF" opacity="1.000000" stroke="none" 
	d="
M283.949158,213.002029 
	C285.922211,214.742371 287.543518,216.412018 288.911163,218.268555 
	C289.254395,218.734512 289.057220,220.283051 288.644806,220.517090 
	C283.564087,223.400253 285.178345,226.166519 288.541931,229.133316 
	C289.018921,229.554031 288.897125,230.653625 289.053162,231.442337 
	C281.337006,232.802277 281.147308,232.578384 280.927551,225.151352 
	C280.882782,223.637863 280.028595,222.094513 279.337402,220.666626 
	C278.317200,218.559006 280.721497,214.003372 283.949158,213.002029 
z"/>
<path fill="#FFFFFF" opacity="1.000000" stroke="none" 
	d="
M298.000000,224.934326 
	C298.000000,220.498642 298.000000,216.553665 298.000000,212.235977 
	C299.905975,212.132004 301.638306,212.037506 303.690308,211.925568 
	C303.690308,218.578079 303.690308,225.080322 303.690308,231.793198 
	C301.918854,231.793198 300.191650,231.793198 298.000000,231.793198 
	C298.000000,229.625839 298.000000,227.525436 298.000000,224.934326 
z"/>
<path fill="#FFFFFF" opacity="1.000000" stroke="none" 
	d="
M356.000000,221.999969 
	C356.000000,218.553970 356.000000,215.595947 356.000000,212.240402 
	C357.870361,212.132843 359.601044,212.033310 361.673248,211.914139 
	C361.673248,218.560135 361.673248,225.056915 361.673248,231.779114 
	C359.942535,231.779114 358.214874,231.779114 356.000000,231.779114 
	C356.000000,228.674591 356.000000,225.581268 356.000000,221.999969 
z"/>
<path fill="#FFFFFF" opacity="1.000000" stroke="none" 
	d="
M565.000000,227.856827 
	C565.000000,224.081207 565.000000,220.782730 565.000000,217.533386 
	C575.919739,215.960526 575.919739,215.960526 575.875427,221.244995 
	C567.052979,221.112885 572.940674,228.417252 570.339600,231.793015 
	C569.046875,231.793015 567.439453,231.793015 565.343811,231.793015 
	C565.242249,230.770996 565.121094,229.552475 565.000000,227.856827 
z"/>
<path fill="#FFFFFF" opacity="1.000000" stroke="none" 
	d="
M351.970886,231.997223 
	C350.666718,231.017258 349.157715,230.064926 349.112976,229.048172 
	C348.873779,223.613312 349.000153,218.162354 349.000153,212.359589 
	C350.609009,212.359589 352.103668,212.359589 353.997437,212.359589 
	C353.997437,218.267349 354.045074,224.181946 353.929199,230.093323 
	C353.916565,230.736725 352.960327,231.361649 351.970886,231.997223 
z"/>
<path fill="#FFFFFF" opacity="1.000000" stroke="none" 
	d="
M514.000000,222.096771 
	C514.000000,225.525452 514.000000,228.471909 514.000000,231.778656 
	C512.074585,231.873657 510.345093,231.958969 508.303070,232.059708 
	C508.303070,227.063812 508.303070,222.226120 508.303070,217.191101 
	C510.105225,217.191101 511.829987,217.191101 514.000000,217.191101 
	C514.000000,218.737823 514.000000,220.176178 514.000000,222.096771 
z"/>
<path fill="#FFFFFF" opacity="1.000000" stroke="none" 
	d="
M295.974915,230.718781 
	C294.155182,231.546234 292.357330,231.899521 290.238525,232.315887 
	C290.238525,227.025497 290.238525,222.313293 290.238525,217.217773 
	C291.914062,217.129944 293.644440,217.039246 295.996796,216.915939 
	C295.996796,221.467285 295.996796,225.855942 295.974915,230.718781 
z"/>
<path fill="#FFFFFF" opacity="1.000000" stroke="none" 
	d="
M579.970398,231.997253 
	C578.666687,231.020935 577.194702,230.091904 577.114685,229.055344 
	C576.824158,225.293716 577.000122,221.496063 577.000122,217.357117 
	C578.609131,217.357117 580.102234,217.357117 581.997375,217.357117 
	C581.997375,221.598724 582.062683,225.852615 581.927856,230.100143 
	C581.907349,230.746902 580.959656,231.364243 579.970398,231.997253 
z"/>
<path fill="#FFFFFF" opacity="1.000000" stroke="none" 
	d="
M626.790283,222.001678 
	C628.000000,223.010712 628.747986,224.018326 630.053711,225.777405 
	C625.669983,225.777405 622.612061,225.777405 619.277466,225.777405 
	C619.277466,224.601669 619.277466,223.437790 619.277466,222.000229 
	C621.774658,222.000229 624.051575,222.000229 626.790283,222.001678 
z"/>
<path fill="#FFFFFF" opacity="1.000000" stroke="none" 
	d="
M510.304749,210.276657 
	C512.901184,210.927109 515.114075,212.105835 513.323425,214.911728 
	C512.904724,215.567841 510.585632,215.011154 509.140869,215.012482 
	C509.426697,213.512344 509.712494,212.012207 510.304749,210.276657 
z"/>
<path fill="#FFFFFF" opacity="1.000000" stroke="none" 
	d="
M236.197418,227.015198 
	C241.025711,228.340118 241.137558,228.881317 237.759491,232.639862 
	C233.118805,230.466309 233.092926,230.392181 236.197418,227.015198 
z"/>
<path fill="#FFFFFF" opacity="1.000000" stroke="none" 
	d="
M295.984314,213.194595 
	C293.816895,218.564194 291.960510,215.259521 289.718292,213.199173 
	C290.702271,212.043564 291.622589,210.962692 292.870422,209.497208 
	C294.040070,210.744980 295.006622,211.776093 295.984314,213.194595 
z"/>
<path fill="#FFFFFF" opacity="1.000000" stroke="none" 
	d="
M204.546997,227.171509 
	C207.425140,226.768890 209.456161,227.366821 208.869843,230.393539 
	C208.705414,231.242325 206.884338,232.519821 206.069336,232.358337 
	C203.133728,231.776657 203.030380,229.681747 204.546997,227.171509 
z"/>
<path fill="#4285F5" opacity="1.000000" stroke="none" 
	d="
M171.033203,223.217865 
	C172.387268,222.413818 173.706833,221.785736 175.054001,221.719543 
	C175.428711,221.701141 176.418472,223.541702 176.183395,224.184875 
	C175.797821,225.239792 174.641190,226.012878 173.809723,226.904816 
	C172.876190,225.805283 171.942657,224.705734 171.033203,223.217865 
z"/>
<path fill="#000000" opacity="1.000000" stroke="none" 
	d="
M500.246643,222.638428 
	C500.027557,224.724121 499.591461,226.475998 499.155334,228.227875 
	C498.443756,228.179489 497.732208,228.131088 497.020630,228.082703 
	C496.911194,225.990082 496.801727,223.897461 496.692291,221.804840 
	C497.804749,221.971436 498.917206,222.138031 500.246643,222.638428 
z"/>
<path fill="#000000" opacity="1.000000" stroke="none" 
	d="
M389.697174,223.250519 
	C389.326141,225.072021 388.698425,226.597778 388.078064,228.105698 
	C384.532440,226.122437 384.364319,223.843674 386.409058,221.426041 
	C386.579193,221.224884 388.391266,222.412430 389.697174,223.250519 
z"/>
<path fill="#000000" opacity="1.000000" stroke="none" 
	d="
M236.711884,177.774048 
	C232.586990,179.360260 228.750122,180.672256 224.268402,182.204758 
	C224.268402,172.430283 224.268402,164.003174 224.268402,155.564423 
	C232.273621,153.818100 236.816544,157.138489 238.974335,160.910858 
	C241.265503,164.916367 240.203842,173.651993 236.711884,177.774048 
z"/>
<path fill="#000000" opacity="1.000000" stroke="none" 
	d="
M125.007141,176.440918 
	C125.000893,174.014114 124.351738,171.684616 125.163536,170.106781 
	C126.202194,168.087997 128.147263,166.061996 130.195663,165.156479 
	C132.742722,164.030518 134.932755,165.490356 135.741913,168.373535 
	C136.174347,169.914322 137.307343,171.734512 136.851547,172.952271 
	C135.811432,175.731064 134.590225,179.191010 132.336044,180.585480 
	C129.197296,182.527161 126.587692,179.919296 125.007141,176.440918 
z"/>
<path fill="#000000" opacity="1.000000" stroke="none" 
	d="
M662.013062,180.994293 
	C659.486389,180.598145 656.564331,180.880707 655.394531,179.583298 
	C652.705933,176.601471 652.317017,172.511093 654.157471,168.886993 
	C655.000977,167.226105 657.284058,165.201248 658.834717,165.265366 
	C660.879700,165.349915 664.330566,167.085892 664.565369,168.534973 
	C665.239258,172.695007 666.430847,177.425964 662.013062,180.994293 
z"/>
<path fill="#000000" opacity="1.000000" stroke="none" 
	d="
M414.012634,168.264832 
	C415.521271,164.569290 418.561676,164.269547 421.167297,165.231949 
	C423.783875,166.198380 425.425934,168.500412 425.070770,171.881592 
	C424.687561,175.529739 425.843842,179.873093 421.071655,181.273010 
	C419.468719,181.743225 416.724518,181.062073 415.593445,179.870834 
	C412.605133,176.723541 412.120850,172.760239 414.012634,168.264832 
z"/>
<path fill="#000000" opacity="1.000000" stroke="none" 
	d="
M179.167618,164.974350 
	C183.998001,163.442261 185.605789,164.424576 186.933289,169.692078 
	C183.147949,169.692078 179.413513,169.692078 174.912567,169.692078 
	C176.316071,167.997223 177.547195,166.510544 179.167618,164.974350 
z"/>
<path fill="#000000" opacity="1.000000" stroke="none" 
	d="
M269.975342,170.000000 
	C267.532715,170.000000 265.536865,170.000000 263.250000,170.000000 
	C264.560913,166.737244 265.887451,163.675110 269.978699,164.057495 
	C273.122986,164.351379 274.817780,166.355759 275.001495,170.000000 
	C273.341583,170.000000 271.881836,170.000000 269.975342,170.000000 
z"/>
<path fill="#000000" opacity="1.000000" stroke="none" 
	d="
M330.281494,166.231628 
	C332.591980,165.388260 334.866241,163.979584 336.579651,164.482285 
	C338.223755,164.964691 339.286407,167.428909 341.298248,169.860657 
	C336.010223,169.860657 332.267242,169.860657 328.196014,169.860657 
	C328.841370,168.659210 329.420715,167.580612 330.281494,166.231628 
z"/>
<path fill="#000000" opacity="1.000000" stroke="none" 
	d="
M448.176147,168.560638 
	C450.462097,166.780106 452.632843,164.298431 454.759644,164.335526 
	C456.719696,164.369720 458.632538,167.109543 460.566193,168.657562 
	C460.273376,169.241516 459.980591,169.825470 459.687805,170.409424 
	C455.805786,169.925568 451.923767,169.441711 448.176147,168.560638 
z"/>
<path fill="#000000" opacity="1.000000" stroke="none" 
	d="
M99.285873,165.771576 
	C102.476990,170.279633 103.107620,174.633545 100.356773,179.210892 
	C98.108932,182.951263 93.943588,182.993607 91.703796,179.271912 
	C88.866798,174.557861 89.322701,169.247864 92.700348,165.748474 
	C94.801506,163.571594 96.795708,163.086304 99.285873,165.771576 
z"/>
<path fill="#000000" opacity="1.000000" stroke="none" 
	d="
M584.661011,165.842300 
	C590.789124,162.773270 595.460938,166.595108 594.947083,173.887222 
	C594.826843,175.592896 594.535461,177.717896 593.466797,178.819504 
	C592.029480,180.301102 589.530579,182.059082 587.910767,181.713486 
	C586.054260,181.317413 583.503601,178.873367 583.310913,177.096130 
	C582.922913,173.516724 583.928589,169.786255 584.661011,165.842300 
z"/>
<path fill="#000000" opacity="1.000000" stroke="none" 
	d="
M58.360088,165.250580 
	C61.826134,163.145309 63.945473,164.250793 65.739578,167.156754 
	C67.568268,170.118729 67.505997,177.440674 65.387268,180.119019 
	C62.882992,183.284729 57.937946,182.539169 56.230785,178.435440 
	C54.345169,173.902710 54.125957,169.329605 58.360088,165.250580 
z"/>
<path fill="#000000" opacity="1.000000" stroke="none" 
	d="
M389.987244,171.333740 
	C389.998383,172.580750 390.110992,173.426620 389.980072,174.232956 
	C389.150299,179.344406 386.403137,182.564026 382.990997,181.937363 
	C378.167603,181.051544 377.916534,177.147644 378.022278,173.274612 
	C378.070496,171.507965 377.814575,169.393997 378.673828,168.073410 
	C379.774078,166.382492 381.843567,164.249756 383.524475,164.224258 
	C387.466919,164.164459 388.988953,167.523666 389.987244,171.333740 
z"/>
<path fill="#000000" opacity="1.000000" stroke="none" 
	d="
M432.789490,219.473083 
	C432.638245,222.922440 434.383362,227.494217 428.639008,226.825287 
	C427.299469,226.669312 425.262177,224.414749 425.225861,223.080078 
	C425.173218,221.143356 426.263824,218.776108 427.660980,217.397171 
	C428.215271,216.850098 430.895172,218.456711 432.789490,219.473083 
z"/>
<path fill="#000000" opacity="1.000000" stroke="none" 
	d="
M20.365330,225.708405 
	C19.377069,222.955353 18.358232,220.425491 18.283871,217.868179 
	C18.257166,216.949783 20.441645,215.346222 21.737444,215.211151 
	C22.733315,215.107346 24.430828,216.594681 24.928688,217.755234 
	C26.938110,222.439285 25.636059,224.729904 20.365330,225.708405 
z"/>
<path fill="#000000" opacity="1.000000" stroke="none" 
	d="
M191.795593,217.003784 
	C196.635651,216.901047 197.361725,219.761200 196.958664,223.184128 
	C196.482330,227.229279 193.528946,227.278366 189.463074,226.717865 
	C190.100677,223.442078 190.726944,220.224503 191.795593,217.003784 
z"/>
<path fill="#000000" opacity="1.000000" stroke="none" 
	d="
M253.738312,221.981628 
	C252.723709,220.204285 252.132462,218.417313 251.541214,216.630341 
	C251.929123,216.284515 252.317017,215.938675 252.704926,215.592850 
	C254.127533,216.459976 255.550140,217.327103 256.972748,218.194244 
	C256.035736,219.453491 255.098709,220.712738 253.738312,221.981628 
z"/>
<path fill="#000000" opacity="1.000000" stroke="none" 
	d="
M340.081116,221.037750 
	C340.671021,221.679016 341.094147,222.360474 340.950409,222.887207 
	C340.482117,224.602905 339.806793,226.262100 339.211121,227.943039 
	C338.500397,227.375290 337.237152,226.858063 337.179779,226.230576 
	C336.987183,224.123764 336.037292,221.393219 340.081116,221.037750 
z"/>
</svg>