<?xml version="1.0" encoding="UTF-8"?>
<svg version="1.1" xmlns="http://www.w3.org/2000/svg" width="393" height="46">
<path d="M0 0 C2.375 1 2.375 1 4 3 C4.45236968 6.16658774 4.68427605 7.99407307 4 11 C0.77427762 14.64194462 -3.82314103 16.62328855 -8.109375 18.8515625 C-10.15363884 19.86372052 -10.15363884 19.86372052 -11 22 C-10.27296875 22.26683594 -9.5459375 22.53367187 -8.796875 22.80859375 C-6.02254029 23.99039834 -3.73597203 25.36486474 -1.25 27.0625 C-0.47140625 27.58972656 0.3071875 28.11695312 1.109375 28.66015625 C3 30 3 30 4 31 C4.36273601 34.84500171 4.51362559 37.17819906 2.4375 40.5 C-0.36496905 42.22459634 -1.78809991 42.11364452 -4.96899414 41.5703125 C-8.94489053 40.45386894 -12.3913776 38.32081578 -15.9375 36.25 C-16.69740234 35.81945313 -17.45730469 35.38890625 -18.24023438 34.9453125 C-20.50720297 33.65211436 -22.7565747 32.33358352 -25 31 C-25.76328613 30.54689453 -26.52657227 30.09378906 -27.31298828 29.62695312 C-28.03599121 29.18802734 -28.75899414 28.74910156 -29.50390625 28.296875 C-30.15302979 27.90338867 -30.80215332 27.50990234 -31.47094727 27.10449219 C-33 26 -33 26 -34 24 C-34.375 21.1875 -34.375 21.1875 -34 18 C-29.66026448 12.54486809 -23.55542745 9.55781719 -17.5625 6.1875 C-16.53833984 5.59001953 -15.51417969 4.99253906 -14.45898438 4.37695312 C-12.9652832 3.53100586 -12.9652832 3.53100586 -11.44140625 2.66796875 C-10.54107666 2.15516357 -9.64074707 1.6423584 -8.71313477 1.11401367 C-5.58644033 -0.16980768 -3.35094994 -0.27354099 0 0 Z " fill="#4284F4" transform="translate(34,3)"/>
<path d="M0 0 C3.04199219 1.23754883 3.04199219 1.23754883 6.046875 2.95703125 C7.13871094 3.57513672 8.23054688 4.19324219 9.35546875 4.83007812 C10.47566406 5.48427734 11.59585938 6.13847656 12.75 6.8125 C13.88566406 7.45509766 15.02132812 8.09769531 16.19140625 8.75976562 C25.88467932 14.30781338 25.88467932 14.30781338 28 17 C28.4375 20.4375 28.4375 20.4375 28 24 C23.86747795 28.90585259 18.19599768 31.58058344 12.6875 34.6875 C11.66720703 35.28111328 10.64691406 35.87472656 9.59570312 36.48632812 C-0.08841511 41.97629043 -0.08841511 41.97629043 -6 42 C-8.4375 40.5 -8.4375 40.5 -10 38 C-10.625 34.5625 -10.625 34.5625 -10 31 C-5.80458625 26.48186212 -0.427602 23.83441438 5 21 C4.00097656 20.36191406 3.00195312 19.72382813 1.97265625 19.06640625 C0.66922829 18.23183727 -0.63415481 17.39719823 -1.9375 16.5625 C-2.59685547 16.14162109 -3.25621094 15.72074219 -3.93554688 15.28710938 C-8.88671875 12.11328125 -8.88671875 12.11328125 -10 11 C-10.46023689 3.86632826 -10.46023689 3.86632826 -8.9375 1 C-5.90866518 -0.56326959 -3.36646722 -0.22161628 0 0 Z " fill="#119D57" transform="translate(58,3)"/>
<path d="M0 0 C2.375 1 2.375 1 4 3 C4.45225716 6.16580013 4.67956225 7.99400841 4 11 C2.125 13.125 2.125 13.125 -1 15 C-1.79792969 15.52980469 -2.59585937 16.05960938 -3.41796875 16.60546875 C-10.32070572 21.06114978 -10.32070572 21.06114978 -12.99609375 20.8203125 C-15.39514646 19.83824414 -17.69368582 18.74729859 -20 17.5625 C-21.2684375 16.91474609 -21.2684375 16.91474609 -22.5625 16.25390625 C-23.366875 15.84011719 -24.17125 15.42632812 -25 15 C-26.33278865 14.33224507 -27.66603272 13.66539726 -29 13 C-25.3037749 10.81216417 -21.59124281 8.65362987 -17.875 6.5 C-16.82828125 5.87996094 -15.7815625 5.25992187 -14.703125 4.62109375 C-13.68476563 4.03457031 -12.66640625 3.44804688 -11.6171875 2.84375 C-10.68503418 2.29912109 -9.75288086 1.75449219 -8.79248047 1.19335938 C-5.61379279 -0.16504466 -3.42396215 -0.29404597 0 0 Z " fill="#E84336" transform="translate(34,3)"/>
<path d="M0 0 C1.05574219 0.54527344 2.11148438 1.09054688 3.19921875 1.65234375 C4.26785156 2.20019531 5.33648437 2.74804688 6.4375 3.3125 C7.24574219 3.73402344 8.05398437 4.15554687 8.88671875 4.58984375 C4.55469393 8.32796194 -0.14115969 11.06320444 -5.11328125 13.83984375 C-5.90734375 14.29875 -6.70140625 14.75765625 -7.51953125 15.23046875 C-8.29296875 15.66359375 -9.06640625 16.09671875 -9.86328125 16.54296875 C-10.559375 16.93645508 -11.25546875 17.32994141 -11.97265625 17.73535156 C-14.52815434 18.75545231 -16.38353876 18.84869864 -19.11328125 18.58984375 C-21.42578125 17.02734375 -21.42578125 17.02734375 -23.11328125 14.58984375 C-23.73828125 11.15234375 -23.73828125 11.15234375 -23.11328125 7.58984375 C-21.06913699 5.38845763 -19.59259243 4.14826792 -17.11328125 2.58984375 C-16.37851562 2.1103125 -15.64375 1.63078125 -14.88671875 1.13671875 C-8.98462451 -2.45586036 -6.44834249 -2.92076743 0 0 Z " fill="#F3B300" transform="translate(71.11328125,26.41015625)"/>
<path d="M0 0 C3.0625 0.1875 3.0625 0.1875 5.0625 2.1875 C7.64604218 2.35437448 7.64604218 2.35437448 10.0625 2.1875 C10.3925 1.5275 10.7225 0.8675 11.0625 0.1875 C13.0425 0.1875 15.0225 0.1875 17.0625 0.1875 C17.3925 0.8475 17.7225 1.5075 18.0625 2.1875 C18.91799438 2.17964478 18.91799438 2.17964478 19.79077148 2.17163086 C22.36050323 2.15091779 24.93021747 2.1378581 27.5 2.125 C28.39783203 2.11662109 29.29566406 2.10824219 30.22070312 2.09960938 C31.07470703 2.09638672 31.92871094 2.09316406 32.80859375 2.08984375 C33.59935303 2.08460693 34.3901123 2.07937012 35.20483398 2.07397461 C37.0625 2.1875 37.0625 2.1875 38.0625 3.1875 C38.10313832 4.85367115 38.105221 6.52138095 38.0625 8.1875 C36.40635343 8.56968767 34.73792976 8.90145102 33.0625 9.1875 C32.5675 8.6925 32.5675 8.6925 32.0625 8.1875 C31.4025 9.1775 30.7425 10.1675 30.0625 11.1875 C27.5625 11.5 27.5625 11.5 25.0625 11.1875 C24.4025 10.5275 23.7425 9.8675 23.0625 9.1875 C21.17512988 8.91098568 21.17512988 8.91098568 19.03515625 8.9921875 C18.24302734 8.99863281 17.45089844 9.00507812 16.63476562 9.01171875 C15.39243164 9.03685547 15.39243164 9.03685547 14.125 9.0625 C13.30064453 9.07152344 12.47628906 9.08054687 11.62695312 9.08984375 C10.09247122 9.10729521 8.55802673 9.12884637 7.02368164 9.15576172 C5.3701371 9.18252143 3.71626105 9.1875 2.0625 9.1875 C1.216875 9.249375 0.37125 9.31125 -0.5 9.375 C-1.304375 9.313125 -2.10875 9.25125 -2.9375 9.1875 C-4.9375 6.1875 -4.9375 6.1875 -4.625 3.5625 C-3.63731654 0.1505026 -3.65603948 0.23336422 0 0 Z M-0.9375 2.1875 C-1.2675 3.5075 -1.5975 4.8275 -1.9375 6.1875 C1.24740007 6.4648501 1.24740007 6.4648501 4.0625 4.1875 C3.0725 4.1875 2.0825 4.1875 1.0625 4.1875 C1.0625 3.5275 1.0625 2.8675 1.0625 2.1875 C0.4025 2.1875 -0.2575 2.1875 -0.9375 2.1875 Z M7.0625 4.1875 C8.0625 7.1875 8.0625 7.1875 8.0625 7.1875 Z M27.0625 4.1875 C28.0625 7.1875 28.0625 7.1875 28.0625 7.1875 Z " fill="#000000" transform="translate(229.9375,33.8125)"/>
<path d="M0 0 C0.66 0.33 1.32 0.66 2 1 C2 1.66 2 2.32 2 3 C10.58 3 19.16 3 28 3 C28 2.01 28 1.02 28 0 C28.66 0 29.32 0 30 0 C30 3.3 30 6.6 30 10 C29.34 10 28.68 10 28 10 C28 8.35 28 6.7 28 5 C27.34 5 26.68 5 26 5 C26 6.65 26 8.3 26 10 C25.40050537 9.98952637 24.80101074 9.97905273 24.18334961 9.96826172 C21.4347767 9.92637163 18.68627126 9.90056997 15.9375 9.875 C14.52307617 9.84986328 14.52307617 9.84986328 13.08007812 9.82421875 C7.59743096 9.78601215 3.19807155 10.28517227 -2 12 C-5.4375 12.125 -5.4375 12.125 -8 12 C-8.09765625 5.84765625 -8.09765625 5.84765625 -8 4 C-7 3 -7 3 -3.9375 2.9375 C-2.4834375 2.9684375 -2.4834375 2.9684375 -1 3 C-0.67 2.01 -0.34 1.02 0 0 Z M-5 5 C-5 8 -5 8 -5 8 Z " fill="#000000" transform="translate(309,33)"/>
<path d="M0 0 C2.4375 1.875 2.4375 1.875 4 4 C4 4.66 4 5.32 4 6 C3.28972656 5.91621094 2.57945313 5.83242187 1.84765625 5.74609375 C0.46900391 5.59333984 0.46900391 5.59333984 -0.9375 5.4375 C-1.85402344 5.33308594 -2.77054688 5.22867187 -3.71484375 5.12109375 C-4.84599609 5.06115234 -4.84599609 5.06115234 -6 5 C-7.20561184 5.98267859 -7.20561184 5.98267859 -7.09765625 7.84765625 C-7.08605469 8.57855469 -7.07445313 9.30945313 -7.0625 10.0625 C-7.041875 11.361875 -7.02125 12.66125 -7 14 C-5.33388095 14.042721 -3.66617115 14.04063832 -2 14 C-1.67 13.67 -1.34 13.34 -1 13 C-1.99 12.67 -2.98 12.34 -4 12 C-4 10.68 -4 9.36 -4 8 C-1.36 8 1.28 8 4 8 C4.21776233 11.19384754 4.28983481 13.40422845 2.875 16.3125 C0.28318109 18.64513702 -1.54446965 18.86177879 -5 19 C-8.84624466 17.95102418 -9.73691641 17.39462539 -12 14 C-12.84163846 9.26910594 -12.64337215 5.95531016 -9.9375 1.9375 C-6.25345351 -0.492403 -4.33463758 -0.70930433 0 0 Z " fill="#000000" transform="translate(109,6)"/>
<path d="M0 0 C2.4375 1.3125 2.4375 1.3125 4 3 C4 3.99 4 4.98 4 6 C0.7 5.67 -2.6 5.34 -6 5 C-6.68493373 7.85778033 -6.68493373 7.85778033 -7 11 C-6.01 12.485 -6.01 12.485 -5 14 C-2.41619823 14.25030977 -2.41619823 14.25030977 0 14 C0 13.34 0 12.68 0 12 C-0.99 12 -1.98 12 -3 12 C-3 10.68 -3 9.36 -3 8 C-0.69 8 1.62 8 4 8 C4.36206897 14.39655172 4.36206897 14.39655172 2.875 16.875 C0.18335071 18.48998958 -1.86418639 18.87456746 -5 19 C-8.52906067 17.39588152 -9.82772908 16.25840638 -12 13 C-12.46193077 8.01114768 -12.06738634 5.01119752 -9 1 C-5.94306678 -0.52846661 -3.37015453 -0.23242445 0 0 Z " fill="#000000" transform="translate(321,6)"/>
<path d="M0 0 C0.05394705 2.60444348 0.09364469 5.20776998 0.125 7.8125 C0.14175781 8.55048828 0.15851563 9.28847656 0.17578125 10.04882812 C0.21074628 13.91246426 0.19397555 15.70903668 -2 19 C-4.1640625 19.29296875 -4.1640625 19.29296875 -6.625 19.1875 C-7.85089844 19.14689453 -7.85089844 19.14689453 -9.1015625 19.10546875 C-9.72804687 19.07066406 -10.35453125 19.03585938 -11 19 C-11.66 17.68 -12.32 16.36 -13 15 C-10.36 15 -7.72 15 -5 15 C-5 14.67 -5 14.34 -5 14 C-6.134375 13.87625 -7.26875 13.7525 -8.4375 13.625 C-10.2009375 13.315625 -10.2009375 13.315625 -12 13 C-13.60114721 9.79770558 -13.48323075 6.47499763 -13 3 C-9.93512303 -1.26417666 -4.750757 -0.27408213 0 0 Z M-8 4 C-9.29633621 5.06645115 -9.29633621 5.06645115 -9.0625 7.5625 C-9.041875 8.366875 -9.02125 9.17125 -9 10 C-8.01 10.33 -7.02 10.66 -6 11 C-5.34 10.67 -4.68 10.34 -4 10 C-4 8.35 -4 6.7 -4 5 C-5.94603274 4.40929986 -5.94603274 4.40929986 -8 4 Z " fill="#000000" transform="translate(157,10)"/>
<path d="M0 0 C9 0 9 0 13 2 C14.99849814 4.92326901 15.24007048 7.08255394 14.875 10.5625 C14.81054688 11.32691406 14.74609375 12.09132813 14.6796875 12.87890625 C13.75574487 15.76224446 12.64083346 16.56614541 10 18 C7.421875 18.29296875 7.421875 18.29296875 4.75 18.1875 C3.1825 18.125625 1.615 18.06375 0 18 C0 12.06 0 6.12 0 0 Z M4 4 C4 7.63 4 11.26 4 15 C8.86132495 14.50847518 8.86132495 14.50847518 11 12 C10.90304884 7.65805064 10.90304884 7.65805064 9 4 C7.35 4 5.7 4 4 4 Z " fill="#000000" transform="translate(186,6)"/>
<path d="M0 0 C9 0 9 0 11.5625 1.5625 C13.52577308 4.89152827 13.41467826 7.19878263 13 11 C11 14 11 14 8.5 14.75 C6 15 6 15 4 14 C4 15.65 4 17.3 4 19 C2.68 19 1.36 19 0 19 C0 12.73 0 6.46 0 0 Z M5 4 C3.70366379 5.06645115 3.70366379 5.06645115 3.9375 7.5625 C3.958125 8.366875 3.97875 9.17125 4 10 C5.94603274 10.59070014 5.94603274 10.59070014 8 11 C9.29633621 9.93354885 9.29633621 9.93354885 9.0625 7.4375 C9.041875 6.633125 9.02125 5.82875 9 5 C7.05396726 4.40929986 7.05396726 4.40929986 5 4 Z " fill="#000000" transform="translate(265,10)"/>
<path d="M0 0 C3.0625 0.25 3.0625 0.25 6 1 C6.33 1.66 6.66 2.32 7 3 C7.61875 2.835 8.2375 2.67 8.875 2.5 C13.23296047 1.80272632 17.59447168 1.72261488 22 2 C23 3 23 3 23.0625 6.0625 C23.041875 7.031875 23.02125 8.00125 23 9 C19.02084841 9.02886984 15.04172347 9.04675406 11.0625 9.0625 C9.35803711 9.07506836 9.35803711 9.07506836 7.61914062 9.08789062 C6.53955078 9.09111328 5.45996094 9.09433594 4.34765625 9.09765625 C2.84730835 9.10551147 2.84730835 9.10551147 1.31665039 9.11352539 C-1 9 -1 9 -2 8 C-2.1875 5.0625 -2.1875 5.0625 -2 2 C-1.34 1.34 -0.68 0.68 0 0 Z M2 2 C1.01 3.485 1.01 3.485 0 5 C0.33 5.66 0.66 6.32 1 7 C2.98 6.67 4.96 6.34 7 6 C6.67 5.34 6.34 4.68 6 4 C5.01 4 4.02 4 3 4 C2.67 3.34 2.34 2.68 2 2 Z " fill="#4184F4" transform="translate(121,33)"/>
<path d="M0 0 C2.31 0 4.62 0 7 0 C7 0.66 7 1.32 7 2 C7.99 2 8.98 2 10 2 C10 3.32 10 4.64 10 6 C10.66 6 11.32 6 12 6 C12 4.68 12 3.36 12 2 C12.66 2 13.32 2 14 2 C14 4.31 14 6.62 14 9 C11.625 9.1875 11.625 9.1875 9 9 C8.34 8.01 7.68 7.02 7 6 C5.68 6 4.36 6 3 6 C3 6.99 3 7.98 3 9 C2.01 9 1.02 9 0 9 C0 8.01 0 7.02 0 6 C-1.65 6 -3.3 6 -5 6 C-5.33 7.65 -5.66 9.3 -6 11 C-7.98 11 -9.96 11 -12 11 C-12.09765625 4.84765625 -12.09765625 4.84765625 -12 3 C-11 2 -11 2 -7.9375 1.9375 C-6.4834375 1.9684375 -6.4834375 1.9684375 -5 2 C-5 2.66 -5 3.32 -5 4 C-3.35 4 -1.7 4 0 4 C0 2.68 0 1.36 0 0 Z M3 2 C3 2.66 3 3.32 3 4 C3.66 4 4.32 4 5 4 C5 3.34 5 2.68 5 2 C4.34 2 3.68 2 3 2 Z M-10 4 C-10 4.66 -10 5.32 -10 6 C-9.34 6 -8.68 6 -8 6 C-8 5.34 -8 4.68 -8 4 C-8.66 4 -9.32 4 -10 4 Z " fill="#000000" transform="translate(359,34)"/>
<path d="M0 0 C1.32 0.33 2.64 0.66 4 1 C4.845625 0.79375 5.69125 0.5875 6.5625 0.375 C9 0 9 0 10.75 1 C12.67375271 4.07800433 13 6.38238736 13 10 C10.8125 13 10.8125 13 8 15 C5.6875 14.8125 5.6875 14.8125 4 14 C3.67 15.65 3.34 17.3 3 19 C2.01 19 1.02 19 0 19 C0 12.73 0 6.46 0 0 Z M4 4 C3.30840599 5.84725052 3.30840599 5.84725052 3 8 C3.99 9.485 3.99 9.485 5 11 C5.99 11 6.98 11 8 11 C9.00217064 7.41672247 9.00217064 7.41672247 8 4 C6.68 4 5.36 4 4 4 Z " fill="#000000" transform="translate(366,10)"/>
<path d="M0 0 C3.375 0.9375 3.375 0.9375 5.375 3.9375 C5.5 6.625 5.5 6.625 5.375 8.9375 C4.055 9.2675 2.735 9.5975 1.375 9.9375 C2.695 10.2675 4.015 10.5975 5.375 10.9375 C3.375 13.9375 3.375 13.9375 0.5 14.75 C-2.72232959 14.94333978 -4.02313344 14.76844313 -6.625 12.9375 C-8.17086876 9.84576248 -7.91859521 7.34320448 -7.625 3.9375 C-5.3368323 0.27643167 -4.34846249 -0.07497349 0 0 Z M-3.625 3.9375 C-3.625 4.5975 -3.625 5.2575 -3.625 5.9375 C-1.975 5.9375 -0.325 5.9375 1.375 5.9375 C1.045 5.2775 0.715 4.6175 0.375 3.9375 C-0.945 3.9375 -2.265 3.9375 -3.625 3.9375 Z " fill="#000000" transform="translate(172.625,10.0625)"/>
<path d="M0 0 C0.66 0 1.32 0 2 0 C2 3.3 2 6.6 2 10 C-2.29 10 -6.58 10 -11 10 C-11.33 9.01 -11.66 8.02 -12 7 C-13.32 7 -14.64 7 -16 7 C-16 7.99 -16 8.98 -16 10 C-16.99 10 -17.98 10 -19 10 C-19 7.03 -19 4.06 -19 1 C-16.69 1 -14.38 1 -12 1 C-12 1.66 -12 2.32 -12 3 C-9.69 3 -7.38 3 -5 3 C-4.67 2.34 -4.34 1.68 -4 1 C-3.34 1 -2.68 1 -2 1 C-1.67 3.31 -1.34 5.62 -1 8 C-0.67 5.36 -0.34 2.72 0 0 Z M-16 3 C-16 3.66 -16 4.32 -16 5 C-15.34 5 -14.68 5 -14 5 C-14 4.34 -14 3.68 -14 3 C-14.66 3 -15.32 3 -16 3 Z M-12 5 C-11 7 -11 7 -11 7 Z " fill="#000000" transform="translate(217,33)"/>
<path d="M0 0 C2.8125 0.9375 2.8125 0.9375 4.8125 2.9375 C4.9375 6.0625 4.9375 6.0625 4.8125 8.9375 C2.1725 8.9375 -0.4675 8.9375 -3.1875 8.9375 C-3.1875 9.5975 -3.1875 10.2575 -3.1875 10.9375 C-0.5475 10.6075 2.0925 10.2775 4.8125 9.9375 C4.125 11.875 4.125 11.875 2.8125 13.9375 C-0.32005982 15.20745668 -1.75555627 15.09457045 -4.9375 13.9375 C-7.1875 11.9375 -7.1875 11.9375 -8.3125 8.5625 C-8.1875 4.9375 -8.1875 4.9375 -6.125 1.9375 C-3.1875 -0.0625 -3.1875 -0.0625 0 0 Z M-3.1875 3.9375 C-3.5175 4.5975 -3.8475 5.2575 -4.1875 5.9375 C-2.5375 5.9375 -0.8875 5.9375 0.8125 5.9375 C0.8125 5.2775 0.8125 4.6175 0.8125 3.9375 C-0.5075 3.9375 -1.8275 3.9375 -3.1875 3.9375 Z " fill="#000000" transform="translate(287.1875,10.0625)"/>
<path d="M0 0 C2 2 2 2 2.125 5.125 C2.08375 6.07375 2.0425 7.0225 2 8 C-0.64 8 -3.28 8 -6 8 C-6 8.66 -6 9.32 -6 10 C-3.36 9.67 -0.72 9.34 2 9 C1.3125 10.9375 1.3125 10.9375 0 13 C-3.16166734 14.28175703 -4.55969782 14.17011675 -7.75 12.9375 C-10 11 -10 11 -11 8.125 C-11 4.45072121 -10.22281338 2.88142475 -8 0 C-5.09288879 -1.4535556 -3.10402897 -0.71133997 0 0 Z M-6 3 C-6.33 3.66 -6.66 4.32 -7 5 C-5.35 5 -3.7 5 -2 5 C-2 4.34 -2 3.68 -2 3 C-3.32 3 -4.64 3 -6 3 Z " fill="#000000" transform="translate(240,11)"/>
<path d="M0 0 C2.8125 0.9375 2.8125 0.9375 4.8125 2.9375 C4.9375 6.0625 4.9375 6.0625 4.8125 8.9375 C3.4925 9.2675 2.1725 9.5975 0.8125 9.9375 C2.1325 9.9375 3.4525 9.9375 4.8125 9.9375 C4.125 11.875 4.125 11.875 2.8125 13.9375 C-0.32005982 15.20745668 -1.75555627 15.09457045 -4.9375 13.9375 C-7.1875 11.9375 -7.1875 11.9375 -8.3125 8.5625 C-8.1875 4.9375 -8.1875 4.9375 -6.125 1.9375 C-3.1875 -0.0625 -3.1875 -0.0625 0 0 Z M-3.1875 3.9375 C-3.5175 4.5975 -3.8475 5.2575 -4.1875 5.9375 C-2.5375 5.9375 -0.8875 5.9375 0.8125 5.9375 C0.8125 5.2775 0.8125 4.6175 0.8125 3.9375 C-0.5075 3.9375 -1.8275 3.9375 -3.1875 3.9375 Z " fill="#000000" transform="translate(210.1875,10.0625)"/>
<path d="M0 0 C3.375 0.9375 3.375 0.9375 5.375 3.9375 C5.8266129 10.26008065 5.8266129 10.26008065 3.375 13.9375 C0.20587902 14.83312115 -1.80202854 15.22665213 -4.9375 14.125 C-6.625 12.9375 -6.625 12.9375 -7.625 10.9375 C-7.98252493 7.0762308 -8.14546997 4.77025196 -6.0625 1.4375 C-3.625 -0.0625 -3.625 -0.0625 0 0 Z M-2.625 3.9375 C-3.92133621 5.00395115 -3.92133621 5.00395115 -3.6875 7.5 C-3.666875 8.304375 -3.64625 9.10875 -3.625 9.9375 C-1.67896726 10.52820014 -1.67896726 10.52820014 0.375 10.9375 C1.67133621 9.87104885 1.67133621 9.87104885 1.4375 7.375 C1.416875 6.570625 1.39625 5.76625 1.375 4.9375 C-0.57103274 4.34679986 -0.57103274 4.34679986 -2.625 3.9375 Z " fill="#000000" transform="translate(343.625,10.0625)"/>
<path d="M0 0 C3.375 0.9375 3.375 0.9375 5.375 3.9375 C5.92277595 10.07259061 5.92277595 10.07259061 4.1875 12.8125 C1.85394933 14.26091076 0.11732501 14.73684207 -2.625 14.9375 C-5.33137529 13.96019781 -6.32756222 13.53237555 -7.625 10.9375 C-7.98252493 7.0762308 -8.14546997 4.77025196 -6.0625 1.4375 C-3.625 -0.0625 -3.625 -0.0625 0 0 Z M-2.625 3.9375 C-3.92133621 5.00395115 -3.92133621 5.00395115 -3.6875 7.5 C-3.666875 8.304375 -3.64625 9.10875 -3.625 9.9375 C-1.67896726 10.52820014 -1.67896726 10.52820014 0.375 10.9375 C1.67133621 9.87104885 1.67133621 9.87104885 1.4375 7.375 C1.416875 6.570625 1.39625 5.76625 1.375 4.9375 C-0.57103274 4.34679986 -0.57103274 4.34679986 -2.625 3.9375 Z " fill="#000000" transform="translate(257.625,10.0625)"/>
<path d="M0 0 C1.875 1.1875 1.875 1.1875 3 3 C3.5 5.875 3.5 5.875 3 9 C0.875 11.9375 0.875 11.9375 -2 14 C-5.75470151 13.9263784 -7.32841161 13.67158839 -10 11 C-10.49602266 7.96041926 -10.44529863 5.04472936 -10 2 C-7.11336388 -1.77483185 -4.30983434 -1.28378044 0 0 Z M-6 3 C-6 4.98 -6 6.96 -6 9 C-4.05396726 9.59070014 -4.05396726 9.59070014 -2 10 C-0.70366379 8.93354885 -0.70366379 8.93354885 -0.9375 6.4375 C-0.958125 5.633125 -0.97875 4.82875 -1 4 C-2.65 3.67 -4.3 3.34 -6 3 Z " fill="#000000" transform="translate(125,11)"/>
<path d="M0 0 C2.3920839 2.3920839 2.34576948 3.15138886 2.4375 6.4375 C2.3354719 10.65466127 2.3354719 10.65466127 -0.125 13.1875 C-3.83520736 14.23603686 -5.56846384 13.6776399 -9 12 C-11 9 -11 9 -10.875 5.5 C-10 2 -10 2 -8.3125 0 C-5.16357865 -1.36169572 -3.25905865 -0.92103831 0 0 Z M-6 3 C-7.00217064 6.58327753 -7.00217064 6.58327753 -6 10 C-4.68 9.67 -3.36 9.34 -2 9 C-2 7.02 -2 5.04 -2 3 C-3.32 3 -4.64 3 -6 3 Z " fill="#000000" transform="translate(140,11)"/>
<path d="M0 0 C1.32 0 2.64 0 4 0 C4.33 3.3 4.66 6.6 5 10 C5.66 10 6.32 10 7 10 C7.33 6.7 7.66 3.4 8 0 C9.32 0 10.64 0 12 0 C12 4.62 12 9.24 12 14 C10.39125 14.04125 8.7825 14.0825 7.125 14.125 C6.22007812 14.14820313 5.31515625 14.17140625 4.3828125 14.1953125 C2 14 2 14 0 12 C-0.1953125 9.1796875 -0.1953125 9.1796875 -0.125 5.875 C-0.10695313 4.77929688 -0.08890625 3.68359375 -0.0703125 2.5546875 C-0.04710937 1.71164062 -0.02390625 0.86859375 0 0 Z " fill="#000000" transform="translate(351,10)"/>
<path d="M0 0 C2.875 0.875 2.875 0.875 4.875 3.875 C3.555 4.205 2.235 4.535 0.875 4.875 C1.535 5.205 2.195 5.535 2.875 5.875 C3.535 6.535 4.195 7.195 4.875 7.875 C4.5 10.5 4.5 10.5 3.875 12.875 C1.1875 14.0625 1.1875 14.0625 -2.125 14.875 C-5 13.625 -5 13.625 -7.125 11.875 C-7.125 11.215 -7.125 10.555 -7.125 9.875 C-4.815 9.875 -2.505 9.875 -0.125 9.875 C-2.105 9.215 -4.085 8.555 -6.125 7.875 C-6.455 6.225 -6.785 4.575 -7.125 2.875 C-4.59222776 0.43964208 -3.5859098 -0.14343639 0 0 Z " fill="#000000" transform="translate(387.125,10.125)"/>
<path d="M0 0 C1.32 0 2.64 0 4 0 C4.66 1.98 5.32 3.96 6 6 C6.309375 5.38125 6.61875 4.7625 6.9375 4.125 C7.625 2.75 8.3125 1.375 9 0 C10.32 0 11.64 0 13 0 C12.36843005 5.05255964 10.86540627 9.29593201 9 14 C7.35 14 5.7 14 4 14 C3.32471777 12.42032193 2.66010306 10.83608097 2 9.25 C1.62875 8.36828125 1.2575 7.4865625 0.875 6.578125 C0 4 0 4 0 0 Z " fill="#000000" transform="translate(216,10)"/>
<path d="M0 0 C2.5625 0.1875 2.5625 0.1875 4.5625 2.1875 C6.56208364 2.22830783 8.56295254 2.23004356 10.5625 2.1875 C11.5625 3.1875 11.5625 3.1875 11.625 6.25 C11.604375 7.219375 11.58375 8.18875 11.5625 9.1875 C8.5625 9.1875 5.5625 9.1875 2.5625 9.1875 C1.325 9.249375 1.325 9.249375 0.0625 9.3125 C-2.4375 9.1875 -2.4375 9.1875 -4.4375 7.1875 C-3.73338608 0.28718354 -3.73338608 0.28718354 0 0 Z M-0.4375 2.1875 C-0.7675 3.8375 -1.0975 5.4875 -1.4375 7.1875 C-0.4475 6.8575 0.5425 6.5275 1.5625 6.1875 C1.2325 4.8675 0.9025 3.5475 0.5625 2.1875 C0.2325 2.1875 -0.0975 2.1875 -0.4375 2.1875 Z " fill="#4184F4" transform="translate(104.4375,32.8125)"/>
<path d="M0 0 C0.99 0 1.98 0 3 0 C2.67 3.3 2.34 6.6 2 10 C0.68 9.67 -0.64 9.34 -2 9 C-3.546875 9.2784375 -3.546875 9.2784375 -5.125 9.5625 C-6.548125 9.7790625 -6.548125 9.7790625 -8 10 C-10 8 -10 8 -10.1875 4.9375 C-10 2 -10 2 -9 1 C-7.00045254 0.95745644 -4.99958364 0.95919217 -3 1 C-2.34 1 -1.68 1 -1 1 C-0.67 0.67 -0.34 0.34 0 0 Z M-7 3 C-7.33 3.99 -7.66 4.98 -8 6 C-6.68 6.33 -5.36 6.66 -4 7 C-4.33 5.68 -4.66 4.36 -5 3 C-5.66 3 -6.32 3 -7 3 Z " fill="#000000" transform="translate(281,33)"/>
<path d="M0 0 C4.33333333 0 8.66666667 0 13 0 C14.125 4.75 14.125 4.75 13 7 C8.71 7 4.42 7 0 7 C0 4.69 0 2.38 0 0 Z " fill="#000000" transform="translate(374,36)"/>
<path d="M0 0 C2.05078125 0.03255208 4.1015625 0.06510417 6.15234375 0.09765625 C6.15234375 1.41765625 6.15234375 2.73765625 6.15234375 4.09765625 C4.83234375 4.09765625 3.51234375 4.09765625 2.15234375 4.09765625 C1.82234375 7.39765625 1.49234375 10.69765625 1.15234375 14.09765625 C-0.16765625 14.09765625 -1.48765625 14.09765625 -2.84765625 14.09765625 C-2.87451563 11.95188988 -2.89398713 9.8060298 -2.91015625 7.66015625 C-2.92175781 6.46519531 -2.93335938 5.27023437 -2.9453125 4.0390625 C-2.81615523 0.14884541 -2.81615523 0.14884541 0 0 Z " fill="#000000" transform="translate(329.84765625,9.90234375)"/>
<path d="M0 0 C2.64 0 5.28 0 8 0 C8 1.32 8 2.64 8 4 C7.01 4.33 6.02 4.66 5 5 C4.67 7.97 4.34 10.94 4 14 C2.68 14 1.36 14 0 14 C0 9.38 0 4.76 0 0 Z " fill="#000000" transform="translate(294,10)"/>
<path d="M0 0 C1.32 0 2.64 0 4 0 C4 5.94 4 11.88 4 18 C2.68 18 1.36 18 0 18 C0 12.06 0 6.12 0 0 Z " fill="#000000" transform="translate(244,6)"/>
<path d="M0 0 C1.32 0 2.64 0 4 0 C4 5.94 4 11.88 4 18 C2.68 18 1.36 18 0 18 C0 12.06 0 6.12 0 0 Z " fill="#000000" transform="translate(159,6)"/>
<path d="M0 0 C2.875 -0.125 2.875 -0.125 6 0 C6.66 0.66 7.32 1.32 8 2 C7.43181818 7.56818182 7.43181818 7.56818182 6 9 C4.00041636 9.04080783 1.99954746 9.04254356 0 9 C0 6.03 0 3.06 0 0 Z M3 2 C3 3.32 3 4.64 3 6 C3.66 6 4.32 6 5 6 C4.67 4.68 4.34 3.36 4 2 C3.67 2 3.34 2 3 2 Z " fill="#000000" transform="translate(172,34)"/>
<path d="M0 0 C1.65 0 3.3 0 5 0 C6 1 6 1 6.0625 4.0625 C6.041875 5.031875 6.02125 6.00125 6 7 C4.68 7 3.36 7 2 7 C2 7.99 2 8.98 2 10 C1.34 10 0.68 10 0 10 C0 6.7 0 3.4 0 0 Z M2 3 C2 3.66 2 4.32 2 5 C2.66 5 3.32 5 4 5 C4 4.34 4 3.68 4 3 C3.34 3 2.68 3 2 3 Z " fill="#4184F4" transform="translate(145,35)"/>
<path d="M0 0 C1.98 0 3.96 0 6 0 C6 1.65 6 3.3 6 5 C4.68 5 3.36 5 2 5 C2 5.66 2 6.32 2 7 C3.32 7 4.64 7 6 7 C6 7.66 6 8.32 6 9 C4.02 9 2.04 9 0 9 C0 6.03 0 3.06 0 0 Z " fill="#000000" transform="translate(287,34)"/>
<path d="M0 0 C1.67542976 0.28604898 3.34385343 0.61781233 5 1 C5 2.98 5 4.96 5 7 C3.02 7 1.04 7 -1 7 C-1.04254356 5.00045254 -1.04080783 2.99958364 -1 1 C-0.67 0.67 -0.34 0.34 0 0 Z " fill="#4184F4" transform="translate(160,35)"/>
<path d="M0 0 C1.32 0.33 2.64 0.66 4 1 C5.32 0.67 6.64 0.34 8 0 C7.01 2.97 6.02 5.94 5 9 C4.34 9 3.68 9 3 9 C2.01 6.03 1.02 3.06 0 0 Z " fill="#000000" transform="translate(185,34)"/>
<path d="M0 0 C1.98 0 3.96 0 6 0 C6 2.31 6 4.62 6 7 C5.34 7 4.68 7 4 7 C3.67 5.68 3.34 4.36 3 3 C2.67 4.32 2.34 5.64 2 7 C1.34 7 0.68 7 0 7 C0 4.69 0 2.38 0 0 Z " fill="#000000" transform="translate(294,36)"/>
<path d="M0 0 C1.98 0 3.96 0 6 0 C6 2.31 6 4.62 6 7 C5.34 7 4.68 7 4 7 C4 5.35 4 3.7 4 2 C3.34 2 2.68 2 2 2 C2 3.65 2 5.3 2 7 C1.34 7 0.68 7 0 7 C0 4.69 0 2.38 0 0 Z " fill="#000000" transform="translate(340,36)"/>
<path d="M0 0 C0.66 0 1.32 0 2 0 C2 1.65 2 3.3 2 5 C2.66 5 3.32 5 4 5 C4 3.35 4 1.7 4 0 C4.66 0 5.32 0 6 0 C6 2.31 6 4.62 6 7 C4.02 7 2.04 7 0 7 C0 4.69 0 2.38 0 0 Z " fill="#4284F4" transform="translate(152,35)"/>
<path d="M0 0 C0.66 0 1.32 0 2 0 C2 2.97 2 5.94 2 9 C1.34 9 0.68 9 0 9 C0 6.03 0 3.06 0 0 Z " fill="#000000" transform="translate(220,34)"/>
<path d="M0 0 C0.99 0.33 1.98 0.66 3 1 C2.67 1.66 2.34 2.32 2 3 C1.34 3 0.68 3 0 3 C0 2.01 0 1.02 0 0 Z " fill="#000000" transform="translate(193,40)"/>
<path d="M0 0 C0.99 0 1.98 0 3 0 C2.67 0.99 2.34 1.98 2 3 C1.34 2.67 0.68 2.34 0 2 C0 1.34 0 0.68 0 0 Z " fill="#4083F5" transform="translate(166,38)"/>
<path d="M0 0 C0.66 0 1.32 0 2 0 C2 0.99 2 1.98 2 3 C1.34 3 0.68 3 0 3 C0 2.01 0 1.02 0 0 Z " fill="#000000" transform="translate(180,40)"/>
</svg>
